<svg width="43" height="44" viewBox="0 0 43 44" fill="none" xmlns="http://www.w3.org/2000/svg">
<path d="M18.4511 9.2569L21.4371 8.0625V18.8121L18.7497 18.2149L16.3609 15.5275L16.0623 11.6457L18.4511 9.2569Z" fill="#EA203E"/>
<circle cx="21.4371" cy="13.4369" r="4.97202" stroke="#EA203E" stroke-width="2"/>
<rect x="20.6904" width="1.493" height="5.22551" fill="#EA203E"/>
<rect x="30.4106" y="3.40723" width="1.493" height="5.22551" transform="rotate(45 30.4106 3.40723)" fill="#EA203E"/>
<rect x="34.874" y="12.6904" width="1.493" height="5.22551" transform="rotate(90 34.874 12.6904)" fill="#EA203E"/>
<rect x="31.4663" y="22.4111" width="1.493" height="5.22551" transform="rotate(135 31.4663 22.4111)" fill="#EA203E"/>
<rect x="20.6904" y="21.6484" width="1.493" height="5.22551" fill="#EA203E"/>
<rect x="15.1028" y="18.7158" width="1.493" height="5.22551" transform="rotate(45 15.1028 18.7158)" fill="#EA203E"/>
<rect x="13.2256" y="12.6904" width="1.493" height="5.22551" transform="rotate(90 13.2256 12.6904)" fill="#EA203E"/>
<rect x="16.1584" y="7.10254" width="1.493" height="5.22551" transform="rotate(135 16.1584 7.10254)" fill="#EA203E"/>
<path d="M7.14307 38.4541C7.06429 39.2884 6.75635 39.9401 6.21924 40.4092C5.68213 40.8747 4.96777 41.1074 4.07617 41.1074C3.45312 41.1074 2.90348 40.9606 2.42725 40.667C1.95459 40.3698 1.58936 39.9491 1.33154 39.4048C1.07373 38.8605 0.939453 38.2285 0.928711 37.5088V36.7783C0.928711 36.0407 1.05941 35.3908 1.3208 34.8286C1.58219 34.2664 1.95638 33.8332 2.44336 33.5288C2.93392 33.2244 3.49967 33.0723 4.14062 33.0723C5.00358 33.0723 5.69824 33.3068 6.22461 33.7759C6.75098 34.245 7.05713 34.9074 7.14307 35.7632H5.78955C5.7251 35.201 5.56038 34.7964 5.29541 34.5493C5.03402 34.2987 4.64909 34.1733 4.14062 34.1733C3.5498 34.1733 3.09505 34.39 2.77637 34.8232C2.46126 35.2529 2.30013 35.8849 2.29297 36.7192V37.4121C2.29297 38.2572 2.44336 38.9017 2.74414 39.3457C3.0485 39.7897 3.49251 40.0117 4.07617 40.0117C4.6097 40.0117 5.01074 39.8918 5.2793 39.6519C5.54785 39.4119 5.71794 39.0127 5.78955 38.4541H7.14307ZM7.9917 38.0405C7.9917 37.4712 8.10449 36.9591 8.33008 36.5044C8.55566 36.0461 8.87256 35.6951 9.28076 35.4517C9.68896 35.2046 10.158 35.0811 10.688 35.0811C11.4722 35.0811 12.1077 35.3335 12.5947 35.8384C13.0853 36.3433 13.3503 37.0129 13.3896 37.8472L13.395 38.1533C13.395 38.7262 13.284 39.2383 13.062 39.6895C12.8436 40.1406 12.5285 40.4897 12.1167 40.7368C11.7085 40.9839 11.2358 41.1074 10.6987 41.1074C9.87874 41.1074 9.22168 40.8353 8.72754 40.291C8.23698 39.7432 7.9917 39.0145 7.9917 38.105V38.0405ZM9.29688 38.1533C9.29688 38.7513 9.42041 39.2204 9.66748 39.5605C9.91455 39.8971 10.2583 40.0654 10.6987 40.0654C11.1392 40.0654 11.4811 39.8936 11.7246 39.5498C11.9717 39.2061 12.0952 38.703 12.0952 38.0405C12.0952 37.4533 11.9681 36.9878 11.7139 36.644C11.4632 36.3003 11.1213 36.1284 10.688 36.1284C10.2619 36.1284 9.9235 36.2985 9.67285 36.6387C9.4222 36.9753 9.29688 37.4801 9.29688 38.1533ZM15.71 35.1885L15.7476 35.8599C16.1772 35.3407 16.7412 35.0811 17.4395 35.0811C18.6497 35.0811 19.2656 35.7739 19.2871 37.1597V41H17.9819V37.2349C17.9819 36.866 17.9014 36.5939 17.7402 36.4185C17.5827 36.2394 17.3231 36.1499 16.9614 36.1499C16.4351 36.1499 16.043 36.388 15.7852 36.8643V41H14.48V35.1885H15.71ZM22.2573 33.7759V35.1885H23.2832V36.1553H22.2573V39.3994C22.2573 39.6214 22.3003 39.7826 22.3862 39.8828C22.4757 39.9795 22.6333 40.0278 22.8589 40.0278C23.0093 40.0278 23.1615 40.0099 23.3154 39.9741V40.9839C23.0182 41.0662 22.7318 41.1074 22.4561 41.1074C21.4535 41.1074 20.9521 40.5542 20.9521 39.4478V36.1553H19.9961V35.1885H20.9521V33.7759H22.2573ZM27.3276 36.3809C27.1558 36.3522 26.9785 36.3379 26.7959 36.3379C26.1979 36.3379 25.7951 36.5671 25.5874 37.0254V41H24.2822V35.1885H25.5283L25.5605 35.8384C25.8757 35.3335 26.3125 35.0811 26.8711 35.0811C27.0573 35.0811 27.2113 35.1061 27.333 35.1562L27.3276 36.3809ZM31.4634 41C31.4061 40.889 31.356 40.7082 31.313 40.4575C30.8976 40.8908 30.3892 41.1074 29.7876 41.1074C29.2039 41.1074 28.7277 40.9409 28.3589 40.6079C27.9901 40.2749 27.8057 39.8631 27.8057 39.3726C27.8057 38.7531 28.0348 38.2786 28.4932 37.9492C28.9551 37.6162 29.6139 37.4497 30.4697 37.4497H31.27V37.0684C31.27 36.7676 31.1859 36.5277 31.0176 36.3486C30.8493 36.166 30.5933 36.0747 30.2495 36.0747C29.9523 36.0747 29.7088 36.1499 29.519 36.3003C29.3293 36.4471 29.2344 36.6351 29.2344 36.8643H27.9292C27.9292 36.5456 28.0348 36.2484 28.2461 35.9727C28.4574 35.6934 28.7438 35.4749 29.1055 35.3174C29.4707 35.1598 29.8771 35.0811 30.3247 35.0811C31.005 35.0811 31.5475 35.2529 31.9521 35.5967C32.3568 35.9368 32.5645 36.4167 32.5752 37.0361V39.6572C32.5752 40.18 32.6486 40.5972 32.7954 40.9087V41H31.4634ZM30.0293 40.0601C30.2871 40.0601 30.5288 39.9974 30.7544 39.8721C30.9836 39.7467 31.1554 39.5785 31.27 39.3672V38.2715H30.5664C30.083 38.2715 29.7196 38.3556 29.4761 38.5239C29.2326 38.6922 29.1108 38.9303 29.1108 39.2383C29.1108 39.4889 29.1932 39.6895 29.3579 39.8398C29.5262 39.9867 29.75 40.0601 30.0293 40.0601ZM37.1997 39.4209C37.1997 39.1882 37.103 39.0109 36.9097 38.8892C36.7199 38.7674 36.403 38.66 35.959 38.5669C35.515 38.4738 35.1444 38.3556 34.8472 38.2124C34.1955 37.8973 33.8696 37.4408 33.8696 36.8428C33.8696 36.3415 34.0809 35.9225 34.5034 35.5859C34.9259 35.2493 35.4631 35.0811 36.1147 35.0811C36.8094 35.0811 37.3698 35.2529 37.7959 35.5967C38.2256 35.9404 38.4404 36.3862 38.4404 36.9341H37.1353C37.1353 36.6834 37.0422 36.4757 36.856 36.311C36.6698 36.1427 36.4227 36.0586 36.1147 36.0586C35.8283 36.0586 35.5938 36.1248 35.4111 36.2573C35.2321 36.3898 35.1426 36.5671 35.1426 36.7891C35.1426 36.9896 35.2267 37.1453 35.395 37.2563C35.5633 37.3674 35.9035 37.4801 36.4155 37.5947C36.9276 37.7057 37.3286 37.84 37.6187 37.9976C37.9123 38.1515 38.1289 38.3377 38.2686 38.5562C38.4118 38.7746 38.4834 39.0396 38.4834 39.3511C38.4834 39.8739 38.2668 40.2982 37.8335 40.624C37.4002 40.9463 36.8327 41.1074 36.1309 41.1074C35.6546 41.1074 35.2303 41.0215 34.8579 40.8496C34.4855 40.6777 34.1955 40.4414 33.9878 40.1406C33.7801 39.8398 33.6763 39.5158 33.6763 39.1685H34.9438C34.9618 39.4764 35.0781 39.7145 35.293 39.8828C35.5078 40.0475 35.7925 40.1299 36.147 40.1299C36.4907 40.1299 36.7521 40.0654 36.9312 39.9365C37.1102 39.804 37.1997 39.6322 37.1997 39.4209ZM41.2603 33.7759V35.1885H42.2861V36.1553H41.2603V39.3994C41.2603 39.6214 41.3032 39.7826 41.3892 39.8828C41.4787 39.9795 41.6362 40.0278 41.8618 40.0278C42.0122 40.0278 42.1644 40.0099 42.3184 39.9741V40.9839C42.0212 41.0662 41.7347 41.1074 41.459 41.1074C40.4564 41.1074 39.9551 40.5542 39.9551 39.4478V36.1553H38.999V35.1885H39.9551V33.7759H41.2603Z" fill="#EA203E"/>
</svg>
