<svg width="40" height="42" viewBox="0 0 40 42" fill="none" xmlns="http://www.w3.org/2000/svg">
<rect x="19.6843" y="4.72964" width="7.37779" height="16.7556" transform="rotate(45 19.6843 4.72964)" stroke="#EA203E" stroke-width="2"/>
<path d="M18.2565 6.15723L23.4734 11.3741L26.0953 8.7522C27.2669 7.58062 27.2669 5.68113 26.0953 4.50956L25.1211 3.53531C23.9495 2.36374 22.05 2.36374 20.8784 3.53531L18.2565 6.15723Z" stroke="#EA203E" stroke-width="2"/>
<path d="M19.6843 8.05176L9.02721 18.7089M21.5789 9.94636L10.9218 20.6035" stroke="#EA203E" stroke-width="2"/>
<path d="M7.13257 16.8145L4.05385 25.577L12.8164 22.4982" stroke="#EA203E" stroke-width="2.2"/>
<rect x="19.4009" y="21.9346" width="8.95802" height="1.493" fill="#EA203E"/>
<rect x="24.6265" y="18.2021" width="8.95802" height="1.493" transform="rotate(90 24.6265 18.2021)" fill="#EA203E"/>
<path d="M5.2854 39V31.1797H7.59497C8.28605 31.1797 8.89836 31.3337 9.43188 31.6416C9.96899 31.9495 10.3844 32.3864 10.678 32.9521C10.9716 33.5179 11.1184 34.166 11.1184 34.8965V35.2886C11.1184 36.0298 10.9698 36.6815 10.6726 37.2437C10.379 37.8058 9.95825 38.2391 9.4104 38.5435C8.86613 38.8478 8.24129 39 7.53589 39H5.2854ZM6.64429 32.2754V37.915H7.53052C8.24308 37.915 8.78914 37.693 9.1687 37.249C9.55184 36.8014 9.74699 36.1605 9.75415 35.3262V34.8911C9.75415 34.0425 9.56974 33.3944 9.20093 32.9468C8.83211 32.4992 8.29679 32.2754 7.59497 32.2754H6.64429ZM15.3884 34.3809C15.2166 34.3522 15.0393 34.3379 14.8567 34.3379C14.2587 34.3379 13.8559 34.5671 13.6482 35.0254V39H12.343V33.1885H13.5891L13.6213 33.8384C13.9364 33.3335 14.3733 33.0811 14.9319 33.0811C15.1181 33.0811 15.2721 33.1061 15.3938 33.1562L15.3884 34.3809ZM19.5242 39C19.4669 38.889 19.4167 38.7082 19.3738 38.4575C18.9584 38.8908 18.45 39.1074 17.8484 39.1074C17.2647 39.1074 16.7885 38.9409 16.4197 38.6079C16.0509 38.2749 15.8665 37.8631 15.8665 37.3726C15.8665 36.7531 16.0956 36.2786 16.554 35.9492C17.0159 35.6162 17.6747 35.4497 18.5305 35.4497H19.3308V35.0684C19.3308 34.7676 19.2467 34.5277 19.0784 34.3486C18.9101 34.166 18.6541 34.0747 18.3103 34.0747C18.0131 34.0747 17.7696 34.1499 17.5798 34.3003C17.3901 34.4471 17.2952 34.6351 17.2952 34.8643H15.99C15.99 34.5456 16.0956 34.2484 16.3069 33.9727C16.5181 33.6934 16.8046 33.4749 17.1663 33.3174C17.5315 33.1598 17.9379 33.0811 18.3855 33.0811C19.0658 33.0811 19.6083 33.2529 20.0129 33.5967C20.4176 33.9368 20.6252 34.4167 20.636 35.0361V37.6572C20.636 38.18 20.7094 38.5972 20.8562 38.9087V39H19.5242ZM18.0901 38.0601C18.3479 38.0601 18.5896 37.9974 18.8152 37.8721C19.0444 37.7467 19.2162 37.5785 19.3308 37.3672V36.2715H18.6272C18.1438 36.2715 17.7804 36.3556 17.5369 36.5239C17.2934 36.6922 17.1716 36.9303 17.1716 37.2383C17.1716 37.4889 17.254 37.6895 17.4187 37.8398C17.587 37.9867 17.8108 38.0601 18.0901 38.0601ZM27.1082 37.2007L28.032 33.1885H29.3049L27.7205 39H26.6462L25.4001 35.0093L24.1755 39H23.1013L21.5115 33.1885H22.7844L23.7244 37.1577L24.9167 33.1885H25.8997L27.1082 37.2007Z" fill="#EA203E"/>
</svg>
