<svg width="54" height="43" viewBox="0 0 54 43" fill="none" xmlns="http://www.w3.org/2000/svg">
<circle cx="27.4369" cy="13.4369" r="4.97202" stroke="#81CDBA" stroke-width="2"/>
<rect x="26.6904" width="1.493" height="5.22551" fill="#81CDBA"/>
<rect x="36.4102" y="3.40771" width="1.493" height="5.22551" transform="rotate(45 36.4102 3.40771)" fill="#81CDBA"/>
<rect x="40.874" y="12.6909" width="1.493" height="5.22551" transform="rotate(90 40.874 12.6909)" fill="#81CDBA"/>
<rect x="37.4668" y="22.4111" width="1.493" height="5.22551" transform="rotate(135 37.4668 22.4111)" fill="#81CDBA"/>
<rect x="26.6904" y="21.6484" width="1.493" height="5.22551" fill="#81CDBA"/>
<rect x="21.1025" y="18.7158" width="1.493" height="5.22551" transform="rotate(45 21.1025 18.7158)" fill="#81CDBA"/>
<rect x="19.2256" y="12.6909" width="1.493" height="5.22551" transform="rotate(90 19.2256 12.6909)" fill="#81CDBA"/>
<rect x="22.1582" y="7.10254" width="1.493" height="5.22551" transform="rotate(135 22.1582 7.10254)" fill="#81CDBA"/>
<path d="M1.27783 40V32.1797H3.95801C4.84245 32.1797 5.51562 32.3569 5.97754 32.7114C6.43945 33.0659 6.67041 33.5941 6.67041 34.2959C6.67041 34.654 6.57373 34.9762 6.38037 35.2627C6.18701 35.5492 5.90413 35.7712 5.53174 35.9287C5.95426 36.0433 6.28011 36.2599 6.50928 36.5786C6.74202 36.8937 6.8584 37.2733 6.8584 37.7173C6.8584 38.4513 6.62207 39.0153 6.14941 39.4092C5.68034 39.8031 5.00716 40 4.12988 40H1.27783ZM2.63672 36.4712V38.915H4.146C4.5721 38.915 4.90511 38.8094 5.14502 38.5981C5.38493 38.3869 5.50488 38.0933 5.50488 37.7173C5.50488 36.9045 5.08952 36.4891 4.25879 36.4712H2.63672ZM2.63672 35.4722H3.96875C4.39128 35.4722 4.7207 35.3773 4.95703 35.1875C5.19694 34.9941 5.31689 34.722 5.31689 34.3711C5.31689 33.9844 5.20589 33.7051 4.98389 33.5332C4.76546 33.3613 4.4235 33.2754 3.95801 33.2754H2.63672V35.4722ZM11.1338 35.3809C10.9619 35.3522 10.7847 35.3379 10.6021 35.3379C10.0041 35.3379 9.60124 35.5671 9.39355 36.0254V40H8.08838V34.1885H9.33447L9.3667 34.8384C9.6818 34.3335 10.1187 34.0811 10.6772 34.0811C10.8634 34.0811 11.0174 34.1061 11.1392 34.1562L11.1338 35.3809ZM13.3467 40H12.0415V34.1885H13.3467V40ZM11.9609 32.6792C11.9609 32.4787 12.0236 32.3122 12.1489 32.1797C12.2778 32.0472 12.4604 31.981 12.6968 31.981C12.9331 31.981 13.1157 32.0472 13.2446 32.1797C13.3735 32.3122 13.438 32.4787 13.438 32.6792C13.438 32.8761 13.3735 33.0409 13.2446 33.1733C13.1157 33.3022 12.9331 33.3667 12.6968 33.3667C12.4604 33.3667 12.2778 33.3022 12.1489 33.1733C12.0236 33.0409 11.9609 32.8761 11.9609 32.6792ZM14.5444 37.0513C14.5444 36.1489 14.7557 35.4292 15.1782 34.8921C15.6043 34.3514 16.1683 34.0811 16.8701 34.0811C17.5326 34.0811 18.0535 34.312 18.4331 34.7739L18.4922 34.1885H19.6685V39.8228C19.6685 40.5854 19.4303 41.187 18.9541 41.6274C18.4814 42.0679 17.8423 42.2881 17.0366 42.2881C16.6105 42.2881 16.1934 42.1986 15.7852 42.0195C15.3805 41.8441 15.0726 41.6131 14.8613 41.3267L15.479 40.5425C15.88 41.0187 16.3742 41.2568 16.9614 41.2568C17.3947 41.2568 17.7367 41.1387 17.9873 40.9023C18.238 40.6696 18.3633 40.3258 18.3633 39.8711V39.479C17.9873 39.8979 17.486 40.1074 16.8594 40.1074C16.179 40.1074 15.6222 39.8371 15.189 39.2964C14.7593 38.7557 14.5444 38.0073 14.5444 37.0513ZM15.8442 37.1641C15.8442 37.7477 15.9624 38.2078 16.1987 38.5444C16.4386 38.8774 16.7699 39.0439 17.1924 39.0439C17.7188 39.0439 18.109 38.8184 18.3633 38.3672V35.8105C18.1162 35.3701 17.7295 35.1499 17.2031 35.1499C16.7734 35.1499 16.4386 35.32 16.1987 35.6602C15.9624 36.0003 15.8442 36.5016 15.8442 37.1641ZM22.3003 34.8223C22.7264 34.3281 23.2653 34.0811 23.917 34.0811C25.1559 34.0811 25.7843 34.7882 25.8022 36.2026V40H24.4971V36.251C24.4971 35.8499 24.4093 35.5671 24.2339 35.4023C24.062 35.234 23.8078 35.1499 23.4712 35.1499C22.9484 35.1499 22.5581 35.3826 22.3003 35.8481V40H20.9951V31.75H22.3003V34.8223ZM28.7617 32.7759V34.1885H29.7876V35.1553H28.7617V38.3994C28.7617 38.6214 28.8047 38.7826 28.8906 38.8828C28.9801 38.9795 29.1377 39.0278 29.3633 39.0278C29.5137 39.0278 29.6659 39.0099 29.8198 38.9741V39.9839C29.5226 40.0662 29.2362 40.1074 28.9604 40.1074C27.9578 40.1074 27.4565 39.5542 27.4565 38.4478V35.1553H26.5005V34.1885H27.4565V32.7759H28.7617ZM32.0005 34.1885L32.0381 34.8599C32.4678 34.3407 33.0317 34.0811 33.73 34.0811C34.9403 34.0811 35.5562 34.7739 35.5776 36.1597V40H34.2725V36.2349C34.2725 35.866 34.1919 35.5939 34.0308 35.4185C33.8732 35.2394 33.6136 35.1499 33.252 35.1499C32.7256 35.1499 32.3335 35.388 32.0757 35.8643V40H30.7705V34.1885H32.0005ZM39.4717 40.1074C38.6445 40.1074 37.9731 39.8478 37.4575 39.3286C36.9455 38.8058 36.6895 38.1112 36.6895 37.2446V37.0835C36.6895 36.5034 36.8005 35.986 37.0225 35.5312C37.248 35.0729 37.5632 34.7166 37.9678 34.4624C38.3724 34.2082 38.8236 34.0811 39.3213 34.0811C40.1126 34.0811 40.7231 34.3335 41.1528 34.8384C41.5861 35.3433 41.8027 36.0576 41.8027 36.9814V37.5078H38.0054C38.0448 37.9876 38.2041 38.3672 38.4834 38.6465C38.7663 38.9258 39.1208 39.0654 39.5469 39.0654C40.1449 39.0654 40.6318 38.8237 41.0078 38.3403L41.7114 39.0117C41.4787 39.359 41.1672 39.6294 40.7769 39.8228C40.3901 40.0125 39.9551 40.1074 39.4717 40.1074ZM39.3159 35.1284C38.9578 35.1284 38.6678 35.2537 38.4458 35.5044C38.2274 35.755 38.0877 36.1042 38.0269 36.5518H40.5137V36.4551C40.485 36.0182 40.3687 35.6888 40.1646 35.4668C39.9604 35.2412 39.6776 35.1284 39.3159 35.1284ZM46.0781 38.4209C46.0781 38.1882 45.9814 38.0109 45.7881 37.8892C45.5983 37.7674 45.2814 37.66 44.8374 37.5669C44.3934 37.4738 44.0228 37.3556 43.7256 37.2124C43.0739 36.8973 42.748 36.4408 42.748 35.8428C42.748 35.3415 42.9593 34.9225 43.3818 34.5859C43.8044 34.2493 44.3415 34.0811 44.9932 34.0811C45.6878 34.0811 46.2482 34.2529 46.6743 34.5967C47.104 34.9404 47.3188 35.3862 47.3188 35.9341H46.0137C46.0137 35.6834 45.9206 35.4757 45.7344 35.311C45.5482 35.1427 45.3011 35.0586 44.9932 35.0586C44.7067 35.0586 44.4722 35.1248 44.2896 35.2573C44.1105 35.3898 44.021 35.5671 44.021 35.7891C44.021 35.9896 44.1051 36.1453 44.2734 36.2563C44.4417 36.3674 44.7819 36.4801 45.2939 36.5947C45.806 36.7057 46.207 36.84 46.4971 36.9976C46.7907 37.1515 47.0073 37.3377 47.147 37.5562C47.2902 37.7746 47.3618 38.0396 47.3618 38.3511C47.3618 38.8739 47.1452 39.2982 46.7119 39.624C46.2786 39.9463 45.7111 40.1074 45.0093 40.1074C44.533 40.1074 44.1087 40.0215 43.7363 39.8496C43.3639 39.6777 43.0739 39.4414 42.8662 39.1406C42.6585 38.8398 42.5547 38.5158 42.5547 38.1685H43.8223C43.8402 38.4764 43.9565 38.7145 44.1714 38.8828C44.3862 39.0475 44.6709 39.1299 45.0254 39.1299C45.3691 39.1299 45.6305 39.0654 45.8096 38.9365C45.9886 38.804 46.0781 38.6322 46.0781 38.4209ZM51.7607 38.4209C51.7607 38.1882 51.6641 38.0109 51.4707 37.8892C51.2809 37.7674 50.964 37.66 50.52 37.5669C50.076 37.4738 49.7054 37.3556 49.4082 37.2124C48.7565 36.8973 48.4307 36.4408 48.4307 35.8428C48.4307 35.3415 48.6419 34.9225 49.0645 34.5859C49.487 34.2493 50.0241 34.0811 50.6758 34.0811C51.3704 34.0811 51.9308 34.2529 52.3569 34.5967C52.7866 34.9404 53.0015 35.3862 53.0015 35.9341H51.6963C51.6963 35.6834 51.6032 35.4757 51.417 35.311C51.2308 35.1427 50.9837 35.0586 50.6758 35.0586C50.3893 35.0586 50.1548 35.1248 49.9722 35.2573C49.7931 35.3898 49.7036 35.5671 49.7036 35.7891C49.7036 35.9896 49.7878 36.1453 49.9561 36.2563C50.1243 36.3674 50.4645 36.4801 50.9766 36.5947C51.4886 36.7057 51.8896 36.84 52.1797 36.9976C52.4733 37.1515 52.6899 37.3377 52.8296 37.5562C52.9728 37.7746 53.0444 38.0396 53.0444 38.3511C53.0444 38.8739 52.8278 39.2982 52.3945 39.624C51.9613 39.9463 51.3937 40.1074 50.6919 40.1074C50.2157 40.1074 49.7913 40.0215 49.4189 39.8496C49.0465 39.6777 48.7565 39.4414 48.5488 39.1406C48.3411 38.8398 48.2373 38.5158 48.2373 38.1685H49.5049C49.5228 38.4764 49.6392 38.7145 49.854 38.8828C50.0688 39.0475 50.3535 39.1299 50.708 39.1299C51.0518 39.1299 51.3132 39.0654 51.4922 38.9365C51.6712 38.804 51.7607 38.6322 51.7607 38.4209Z" fill="#81CDBA"/>
</svg>
