<svg width="40" height="42" viewBox="0 0 40 42" fill="none" xmlns="http://www.w3.org/2000/svg">
<rect x="19.6846" y="4.72964" width="7.37779" height="16.7556" transform="rotate(45 19.6846 4.72964)" stroke="#81CDBA" stroke-width="2"/>
<path d="M18.257 6.15723L23.4739 11.3741L26.0958 8.7522C27.2674 7.58062 27.2674 5.68113 26.0958 4.50956L25.1215 3.53531C23.95 2.36374 22.0505 2.36374 20.8789 3.53531L18.257 6.15723Z" stroke="#81CDBA" stroke-width="2"/>
<path d="M19.6846 8.05225L9.02745 18.7094M21.5792 9.94684L10.9221 20.604" stroke="#81CDBA" stroke-width="2"/>
<path d="M7.13281 16.8145L4.05409 25.577L12.8166 22.4982" stroke="#81CDBA" stroke-width="2.2"/>
<rect x="19.4014" y="21.9341" width="8.95802" height="1.493" fill="#81CDBA"/>
<rect x="24.627" y="18.2017" width="8.95802" height="1.493" transform="rotate(90 24.627 18.2017)" fill="#81CDBA"/>
<path d="M5.28564 39V31.1797H7.59521C8.2863 31.1797 8.8986 31.3337 9.43213 31.6416C9.96924 31.9495 10.3846 32.3864 10.6782 32.9521C10.9718 33.5179 11.1187 34.166 11.1187 34.8965V35.2886C11.1187 36.0298 10.9701 36.6815 10.6729 37.2437C10.3792 37.8058 9.9585 38.2391 9.41064 38.5435C8.86637 38.8478 8.24154 39 7.53613 39H5.28564ZM6.64453 32.2754V37.915H7.53076C8.24333 37.915 8.78939 37.693 9.16895 37.249C9.55208 36.8014 9.74723 36.1605 9.75439 35.3262V34.8911C9.75439 34.0425 9.56999 33.3944 9.20117 32.9468C8.83236 32.4992 8.29704 32.2754 7.59521 32.2754H6.64453ZM15.3887 34.3809C15.2168 34.3522 15.0396 34.3379 14.8569 34.3379C14.259 34.3379 13.8561 34.5671 13.6484 35.0254V39H12.3433V33.1885H13.5894L13.6216 33.8384C13.9367 33.3335 14.3735 33.0811 14.9321 33.0811C15.1183 33.0811 15.2723 33.1061 15.394 33.1562L15.3887 34.3809ZM19.5244 39C19.4671 38.889 19.417 38.7082 19.374 38.4575C18.9587 38.8908 18.4502 39.1074 17.8486 39.1074C17.265 39.1074 16.7887 38.9409 16.4199 38.6079C16.0511 38.2749 15.8667 37.8631 15.8667 37.3726C15.8667 36.7531 16.0959 36.2786 16.5542 35.9492C17.0161 35.6162 17.675 35.4497 18.5308 35.4497H19.3311V35.0684C19.3311 34.7676 19.2469 34.5277 19.0786 34.3486C18.9103 34.166 18.6543 34.0747 18.3105 34.0747C18.0133 34.0747 17.7699 34.1499 17.5801 34.3003C17.3903 34.4471 17.2954 34.6351 17.2954 34.8643H15.9902C15.9902 34.5456 16.0959 34.2484 16.3071 33.9727C16.5184 33.6934 16.8049 33.4749 17.1665 33.3174C17.5317 33.1598 17.9382 33.0811 18.3857 33.0811C19.0661 33.0811 19.6086 33.2529 20.0132 33.5967C20.4178 33.9368 20.6255 34.4167 20.6362 35.0361V37.6572C20.6362 38.18 20.7096 38.5972 20.8564 38.9087V39H19.5244ZM18.0903 38.0601C18.3481 38.0601 18.5898 37.9974 18.8154 37.8721C19.0446 37.7467 19.2165 37.5785 19.3311 37.3672V36.2715H18.6274C18.144 36.2715 17.7806 36.3556 17.5371 36.5239C17.2936 36.6922 17.1719 36.9303 17.1719 37.2383C17.1719 37.4889 17.2542 37.6895 17.4189 37.8398C17.5872 37.9867 17.811 38.0601 18.0903 38.0601ZM27.1084 37.2007L28.0322 33.1885H29.3052L27.7207 39H26.6465L25.4004 35.0093L24.1758 39H23.1016L21.5117 33.1885H22.7847L23.7246 37.1577L24.917 33.1885H25.8999L27.1084 37.2007Z" fill="#81CDBA"/>
</svg>
