<svg width="36" height="43" viewBox="0 0 36 43"  xmlns="http://www.w3.org/2000/svg">
<g>
	<path  d="M18.4,27.1c5.1,0,9.3-4.2,9.3-9.5c0-1.2-0.4-2.9-1.2-4.9c-0.7-1.8-1.7-3.7-2.8-5.7c-1-1.8-2.2-3.5-3.1-4.8
		c-0.2-0.3-0.4-0.5-0.6-0.7l-1.4-1.3L18.4,0l-0.1,0.1l-1.4,1.3c-0.2,0.2-0.4,0.5-0.6,0.7c-1,1.3-2.1,2.9-3.1,4.8
		c-1.1,2-2.1,4-2.8,5.7c-0.8,2-1.2,3.7-1.2,4.9C9.1,22.8,13.3,27.1,18.4,27.1z M11.1,17.6c0-0.4,0.1-0.9,0.2-1.5h14.2
		c0.1,0.6,0.2,1.1,0.2,1.5c0,0.1,0,0.2,0,0.3H11.1C11.1,17.8,11.1,17.7,11.1,17.6z M25.4,19.9c-0.2,0.6-0.5,1.2-0.8,1.7H12.2
		c-0.3-0.5-0.6-1.1-0.8-1.7H25.4z M18.4,25.1c-1.6,0-3.1-0.6-4.4-1.5h8.7C21.6,24.5,20.1,25.1,18.4,25.1z M12.2,13.4
		c0.7-1.7,1.6-3.6,2.7-5.5c1-1.7,2.1-3.3,3-4.5c0.2-0.3,0.4-0.5,0.6-0.7c0.2,0.2,0.4,0.4,0.6,0.7c0.9,1.2,2,2.8,3,4.5
		c1.1,1.9,2,3.8,2.7,5.5c0.1,0.2,0.2,0.5,0.3,0.7h-13C12,13.9,12.1,13.7,12.2,13.4z"/>
	<path  d="M16.8,34.3c-0.5,0-0.9,0.1-1.4,0.4c-0.4,0.3-0.7,0.6-0.9,1.1c-0.2,0.5-0.3,1-0.3,1.6v0.2
		c0,0.9,0.3,1.6,0.8,2.1c0.5,0.5,1.2,0.8,2,0.8c0.5,0,0.9-0.1,1.3-0.3c0.4-0.2,0.7-0.5,0.9-0.8l-0.7-0.7c-0.4,0.5-0.9,0.7-1.5,0.7
		c-0.4,0-0.8-0.1-1.1-0.4c-0.3-0.3-0.4-0.7-0.5-1.1h3.8v-0.5c0-0.9-0.2-1.6-0.6-2.1C18.2,34.5,17.6,34.3,16.8,34.3z M18,36.7h-2.5
		c0.1-0.4,0.2-0.8,0.4-1c0.2-0.3,0.5-0.4,0.9-0.4c0.4,0,0.6,0.1,0.8,0.3C17.8,35.9,18,36.2,18,36.7L18,36.7z"/>
	<path  d="M21.6,35l0-0.6h-1.2v5.8h1.3v-4c0.2-0.5,0.6-0.7,1.2-0.7c0.2,0,0.4,0,0.5,0l0-1.2c-0.1-0.1-0.3-0.1-0.5-0.1
		C22.3,34.3,21.9,34.5,21.6,35z"/>
	<path  d="M27.8,37.2c-0.3-0.2-0.7-0.3-1.2-0.4c-0.5-0.1-0.9-0.2-1-0.3c-0.2-0.1-0.3-0.3-0.3-0.5c0-0.2,0.1-0.4,0.3-0.5
		c0.2-0.1,0.4-0.2,0.7-0.2c0.3,0,0.6,0.1,0.7,0.3c0.2,0.2,0.3,0.4,0.3,0.6h1.3c0-0.5-0.2-1-0.6-1.3c-0.4-0.3-1-0.5-1.7-0.5
		c-0.7,0-1.2,0.2-1.6,0.5c-0.4,0.3-0.6,0.8-0.6,1.3c0,0.6,0.3,1.1,1,1.4c0.3,0.1,0.7,0.3,1.1,0.4c0.4,0.1,0.8,0.2,1,0.3
		c0.2,0.1,0.3,0.3,0.3,0.5c0,0.2-0.1,0.4-0.3,0.5c-0.2,0.1-0.4,0.2-0.8,0.2c-0.4,0-0.6-0.1-0.9-0.2c-0.2-0.2-0.3-0.4-0.3-0.7h-1.3
		c0,0.3,0.1,0.7,0.3,1c0.2,0.3,0.5,0.5,0.9,0.7c0.4,0.2,0.8,0.3,1.3,0.3c0.7,0,1.3-0.2,1.7-0.5c0.4-0.3,0.6-0.8,0.6-1.3
		c0-0.3-0.1-0.6-0.2-0.8C28.4,37.5,28.1,37.3,27.8,37.2z"/>
	<polygon  points="11.1,38.5 9.8,34.4 8.5,34.4 10.5,40.2 11.6,40.2 13.6,34.4 12.3,34.4 	"/>
	<path  d="M34.7,37.2c0-0.9-0.2-1.6-0.6-2.1c-0.4-0.5-1-0.8-1.8-0.8c-0.5,0-0.9,0.1-1.4,0.4c-0.4,0.3-0.7,0.6-0.9,1.1
		c-0.2,0.5-0.3,1-0.3,1.6v0.2c0,0.9,0.3,1.6,0.8,2.1c0.5,0.5,1.2,0.8,2,0.8c0.5,0,0.9-0.1,1.3-0.3c0.4-0.2,0.7-0.5,0.9-0.8l-0.7-0.7
		c-0.4,0.5-0.9,0.7-1.5,0.7c-0.4,0-0.8-0.1-1.1-0.4c-0.3-0.3-0.4-0.7-0.5-1.1h3.8V37.2z M33.5,36.7H31c0.1-0.4,0.2-0.8,0.4-1
		c0.2-0.3,0.5-0.4,0.9-0.4c0.4,0,0.6,0.1,0.8,0.3C33.3,35.9,33.4,36.2,33.5,36.7L33.5,36.7z"/>
	<path  d="M5.8,34.3c-0.7,0-1.3,0.3-1.7,0.8l0-0.7H2.9v5.8h1.3v-4.1c0.3-0.5,0.6-0.7,1.2-0.7c0.4,0,0.6,0.1,0.8,0.3
		c0.2,0.2,0.2,0.4,0.2,0.8v3.8h1.3v-3.8C7.7,35,7,34.3,5.8,34.3z"/>
	<rect x="0" y="32.4"  width="1.4" height="7.8"/>
</g>
</svg>
