<svg width="36" height="43" viewBox="0 0 36 43" fill="none" xmlns="http://www.w3.org/2000/svg">
<path d="M10.9996 17.4103C10.9996 22.0982 14.7426 25.8741 19.3306 25.8741C23.9187 25.8741 27.6621 22.0982 27.6621 17.4103C27.6621 16.3001 27.2416 14.7039 26.5064 12.8543C25.7821 11.0322 24.7932 9.06299 23.7471 7.24356C22.7003 5.42303 21.6108 3.77759 20.6943 2.59931C20.2336 2.00703 19.8351 1.5568 19.5222 1.2646C19.4489 1.19614 19.3852 1.14103 19.3311 1.09736C19.2769 1.14104 19.2132 1.19615 19.1399 1.26461C18.827 1.55681 18.4285 2.00705 17.9678 2.59932C17.0512 3.77761 15.9617 5.42305 14.9148 7.24358C13.8687 9.06301 12.8797 11.0322 12.1554 12.8543C11.4201 14.7039 10.9996 16.3001 10.9996 17.4103ZM19.1403 0.966306C19.1403 0.966543 19.1438 0.968352 19.1506 0.971019C19.1436 0.967402 19.1402 0.966069 19.1403 0.966306ZM19.5116 0.971022C19.5183 0.968355 19.5218 0.966546 19.5219 0.966309C19.5219 0.966072 19.5186 0.967405 19.5116 0.971022Z" stroke="#3E5294" stroke-width="2" stroke-miterlimit="10"/>
<path d="M12.2393 22.395H26.4228" stroke="#3E5294" stroke-width="2"/>
<path d="M10.7461 18.6626H27.1691" stroke="#3E5294" stroke-width="2"/>
<path d="M10.7461 14.9302H27.1691" stroke="#3E5294" stroke-width="2"/>
<path d="M2.24658 40H0.893066V32.1797H2.24658V40ZM5.00195 34.1885L5.03955 34.8599C5.46924 34.3407 6.0332 34.0811 6.73145 34.0811C7.94173 34.0811 8.55762 34.7739 8.5791 36.1597V40H7.27393V36.2349C7.27393 35.866 7.19336 35.5939 7.03223 35.4185C6.87467 35.2394 6.61507 35.1499 6.25342 35.1499C5.72705 35.1499 5.33496 35.388 5.07715 35.8643V40H3.77197V34.1885H5.00195ZM11.9629 38.3457L13.1929 34.1885H14.541L12.5269 40H11.3936L9.36328 34.1885H10.7168L11.9629 38.3457ZM17.8442 40.1074C17.0171 40.1074 16.3457 39.8478 15.8301 39.3286C15.318 38.8058 15.062 38.1112 15.062 37.2446V37.0835C15.062 36.5034 15.173 35.986 15.395 35.5312C15.6206 35.0729 15.9357 34.7166 16.3403 34.4624C16.745 34.2082 17.1961 34.0811 17.6938 34.0811C18.4852 34.0811 19.0957 34.3335 19.5254 34.8384C19.9587 35.3433 20.1753 36.0576 20.1753 36.9814V37.5078H16.3779C16.4173 37.9876 16.5767 38.3672 16.856 38.6465C17.1388 38.9258 17.4933 39.0654 17.9194 39.0654C18.5174 39.0654 19.0044 38.8237 19.3804 38.3403L20.084 39.0117C19.8512 39.359 19.5397 39.6294 19.1494 39.8228C18.7627 40.0125 18.3276 40.1074 17.8442 40.1074ZM17.6885 35.1284C17.3304 35.1284 17.0404 35.2537 16.8184 35.5044C16.5999 35.755 16.4603 36.1042 16.3994 36.5518H18.8862V36.4551C18.8576 36.0182 18.7412 35.6888 18.5371 35.4668C18.333 35.2412 18.0501 35.1284 17.6885 35.1284ZM24.2358 35.3809C24.064 35.3522 23.8867 35.3379 23.7041 35.3379C23.1061 35.3379 22.7033 35.5671 22.4956 36.0254V40H21.1904V34.1885H22.4365L22.4688 34.8384C22.7839 34.3335 23.2207 34.0811 23.7793 34.0811C23.9655 34.0811 24.1195 34.1061 24.2412 34.1562L24.2358 35.3809ZM28.3179 38.4209C28.3179 38.1882 28.2212 38.0109 28.0278 37.8892C27.8381 37.7674 27.5212 37.66 27.0771 37.5669C26.6331 37.4738 26.2625 37.3556 25.9653 37.2124C25.3136 36.8973 24.9878 36.4408 24.9878 35.8428C24.9878 35.3415 25.1991 34.9225 25.6216 34.5859C26.0441 34.2493 26.5812 34.0811 27.2329 34.0811C27.9276 34.0811 28.488 34.2529 28.9141 34.5967C29.3438 34.9404 29.5586 35.3862 29.5586 35.9341H28.2534C28.2534 35.6834 28.1603 35.4757 27.9741 35.311C27.7879 35.1427 27.5409 35.0586 27.2329 35.0586C26.9465 35.0586 26.7119 35.1248 26.5293 35.2573C26.3503 35.3898 26.2607 35.5671 26.2607 35.7891C26.2607 35.9896 26.3449 36.1453 26.5132 36.2563C26.6815 36.3674 27.0216 36.4801 27.5337 36.5947C28.0457 36.7057 28.4468 36.84 28.7368 36.9976C29.0304 37.1515 29.2471 37.3377 29.3867 37.5562C29.5299 37.7746 29.6016 38.0396 29.6016 38.3511C29.6016 38.8739 29.3849 39.2982 28.9517 39.624C28.5184 39.9463 27.9508 40.1074 27.249 40.1074C26.7728 40.1074 26.3485 40.0215 25.9761 39.8496C25.6037 39.6777 25.3136 39.4414 25.106 39.1406C24.8983 38.8398 24.7944 38.5158 24.7944 38.1685H26.062C26.0799 38.4764 26.1963 38.7145 26.4111 38.8828C26.626 39.0475 26.9106 39.1299 27.2651 39.1299C27.6089 39.1299 27.8703 39.0654 28.0493 38.9365C28.2284 38.804 28.3179 38.6322 28.3179 38.4209ZM33.3022 40.1074C32.4751 40.1074 31.8037 39.8478 31.2881 39.3286C30.776 38.8058 30.52 38.1112 30.52 37.2446V37.0835C30.52 36.5034 30.631 35.986 30.853 35.5312C31.0786 35.0729 31.3937 34.7166 31.7983 34.4624C32.203 34.2082 32.6541 34.0811 33.1519 34.0811C33.9432 34.0811 34.5537 34.3335 34.9834 34.8384C35.4167 35.3433 35.6333 36.0576 35.6333 36.9814V37.5078H31.8359C31.8753 37.9876 32.0347 38.3672 32.314 38.6465C32.5968 38.9258 32.9513 39.0654 33.3774 39.0654C33.9754 39.0654 34.4624 38.8237 34.8384 38.3403L35.542 39.0117C35.3092 39.359 34.9977 39.6294 34.6074 39.8228C34.2207 40.0125 33.7856 40.1074 33.3022 40.1074ZM33.1465 35.1284C32.7884 35.1284 32.4984 35.2537 32.2764 35.5044C32.0579 35.755 31.9183 36.1042 31.8574 36.5518H34.3442V36.4551C34.3156 36.0182 34.1992 35.6888 33.9951 35.4668C33.791 35.2412 33.5081 35.1284 33.1465 35.1284Z" fill="#3E5294"/>
</svg>
