<svg width="29" height="46" viewBox="0 0 29 46" xmlns="http://www.w3.org/2000/svg">
<g>
	<polygon  points="15.4,25.5 15.4,15.4 25.5,15.4 22.9,18.5 24.4,19.8 28.7,14.7 24.4,9.6 22.9,10.9 25.5,13.9 
		15.4,13.9 15.4,3.9 18.5,6.5 19.8,5 14.7,0.7 9.6,5 10.9,6.5 13.9,3.9 13.9,13.9 3.9,13.9 6.5,10.9 5,9.6 0.7,14.7 5,19.8 
		6.5,18.5 3.9,15.4 13.9,15.4 13.9,25.5 10.9,22.9 9.6,24.4 14.7,28.7 19.8,24.4 18.5,22.9 	"/>
	<path  d="M23,37.1c-0.7,0-1.3,0.3-1.7,0.8l0-0.7H20V43h1.3v-4.1c0.3-0.5,0.6-0.7,1.2-0.7c0.4,0,0.6,0.1,0.8,0.3
		c0.2,0.2,0.2,0.4,0.2,0.8V43h1.3v-3.8C24.8,37.8,24.2,37.1,23,37.1z"/>
	<path  d="M10.3,35.2h-3V43h1.4v-2.9h1.6c0.9,0,1.6-0.2,2.1-0.6c0.5-0.4,0.8-1,0.8-1.8c0-0.7-0.3-1.3-0.8-1.8
		C11.8,35.4,11.1,35.2,10.3,35.2z M11.4,38.7c-0.3,0.2-0.6,0.3-1.1,0.3H8.6v-2.7h1.7c0.5,0,0.8,0.1,1.1,0.4c0.3,0.3,0.4,0.6,0.4,1
		C11.8,38.1,11.6,38.4,11.4,38.7z"/>
	<path  d="M18.7,39c0-0.6-0.2-1.1-0.6-1.4c-0.4-0.3-0.9-0.5-1.6-0.5c-0.4,0-0.9,0.1-1.2,0.2c-0.4,0.2-0.6,0.4-0.9,0.7
		c-0.2,0.3-0.3,0.6-0.3,0.9h1.3c0-0.2,0.1-0.4,0.3-0.6c0.2-0.2,0.4-0.2,0.7-0.2c0.3,0,0.6,0.1,0.8,0.3c0.2,0.2,0.3,0.4,0.3,0.7v0.4
		h-0.8c-0.9,0-1.5,0.2-2,0.5c-0.5,0.3-0.7,0.8-0.7,1.4c0,0.5,0.2,0.9,0.6,1.2c0.4,0.3,0.8,0.5,1.4,0.5c0.6,0,1.1-0.2,1.5-0.6
		c0,0.3,0.1,0.4,0.2,0.5h1.3v-0.1c-0.1-0.3-0.2-0.7-0.2-1.3V39z M17.4,41.4c-0.1,0.2-0.3,0.4-0.5,0.5c-0.2,0.1-0.5,0.2-0.7,0.2
		c-0.3,0-0.5-0.1-0.7-0.2c-0.2-0.2-0.2-0.4-0.2-0.6c0-0.3,0.1-0.5,0.4-0.7c0.2-0.2,0.6-0.3,1.1-0.3h0.7V41.4z"/>
</g>
</svg>
