<svg width="29" height="46" viewBox="0 0 29 46" fill="none" xmlns="http://www.w3.org/2000/svg">
<rect x="13.9438" y="2" width="1.493" height="25.3811" fill="#EA203E"/>
<path d="M10.2114 5.73251L14.6904 2L19.1694 5.73251" stroke="#EA203E" stroke-width="2"/>
<path d="M19.1694 23.6483L14.6904 27.3809L10.2114 23.6484" stroke="#EA203E" stroke-width="2"/>
<rect x="27.3811" y="13.9434" width="1.493" height="25.3811" transform="rotate(90 27.3811 13.9434)" fill="#EA203E"/>
<path d="M23.6486 10.2109L27.3811 14.6899L23.6486 19.169" stroke="#EA203E" stroke-width="2"/>
<path d="M5.73251 19.1689L2 14.6899L5.73251 10.2109" stroke="#EA203E" stroke-width="2"/>
<path d="M8.63086 40.0942V43H7.27197V35.1797H10.2637C11.1374 35.1797 11.8302 35.4071 12.3423 35.8618C12.8579 36.3166 13.1157 36.9181 13.1157 37.6665C13.1157 38.4328 12.8633 39.029 12.3584 39.4551C11.8571 39.8812 11.1535 40.0942 10.2476 40.0942H8.63086ZM8.63086 39.0039H10.2637C10.7471 39.0039 11.1159 38.8911 11.3701 38.6655C11.6243 38.4364 11.7515 38.1069 11.7515 37.6772C11.7515 37.2547 11.6226 36.9181 11.3647 36.6675C11.1069 36.4132 10.7524 36.2826 10.3013 36.2754H8.63086V39.0039ZM17.5898 43C17.5326 42.889 17.4824 42.7082 17.4395 42.4575C17.0241 42.8908 16.5156 43.1074 15.9141 43.1074C15.3304 43.1074 14.8542 42.9409 14.4854 42.6079C14.1165 42.2749 13.9321 41.8631 13.9321 41.3726C13.9321 40.7531 14.1613 40.2786 14.6196 39.9492C15.0815 39.6162 15.7404 39.4497 16.5962 39.4497H17.3965V39.0684C17.3965 38.7676 17.3123 38.5277 17.144 38.3486C16.9757 38.166 16.7197 38.0747 16.376 38.0747C16.0788 38.0747 15.8353 38.1499 15.6455 38.3003C15.4557 38.4471 15.3608 38.6351 15.3608 38.8643H14.0557C14.0557 38.5456 14.1613 38.2484 14.3726 37.9727C14.5838 37.6934 14.8703 37.4749 15.2319 37.3174C15.5972 37.1598 16.0036 37.0811 16.4512 37.0811C17.1315 37.0811 17.674 37.2529 18.0786 37.5967C18.4832 37.9368 18.6909 38.4167 18.7017 39.0361V41.6572C18.7017 42.18 18.7751 42.5972 18.9219 42.9087V43H17.5898ZM16.1558 42.0601C16.4136 42.0601 16.6553 41.9974 16.8809 41.8721C17.11 41.7467 17.2819 41.5785 17.3965 41.3672V40.2715H16.6929C16.2095 40.2715 15.846 40.3556 15.6025 40.5239C15.359 40.6922 15.2373 40.9303 15.2373 41.2383C15.2373 41.4889 15.3197 41.6895 15.4844 41.8398C15.6527 41.9867 15.8765 42.0601 16.1558 42.0601ZM21.2798 37.1885L21.3174 37.8599C21.7471 37.3407 22.311 37.0811 23.0093 37.0811C24.2196 37.0811 24.8354 37.7739 24.8569 39.1597V43H23.5518V39.2349C23.5518 38.866 23.4712 38.5939 23.3101 38.4185C23.1525 38.2394 22.8929 38.1499 22.5312 38.1499C22.0049 38.1499 21.6128 38.388 21.355 38.8643V43H20.0498V37.1885H21.2798Z" fill="#EA203E"/>
</svg>
