<svg width="40" height="42" viewBox="0 0 40 42" fill="none" xmlns="http://www.w3.org/2000/svg">
<rect x="8" y="3.23926" width="3.97202" height="3.97202" stroke="#EA203E" stroke-width="2"/>
<rect x="10.2395" y="19.6621" width="3.97202" height="3.97202" stroke="#EA203E" stroke-width="2"/>
<rect x="27.4089" y="1" width="3.97202" height="3.97202" stroke="#EA203E" stroke-width="2"/>
<rect x="24.4231" y="21.9023" width="3.97202" height="3.97202" stroke="#EA203E" stroke-width="2"/>
<path d="M12.5988 5.22583L27.1556 2.98633M14.4651 21.6489L24.1696 23.8884M9.98608 7.46534L12.2256 19.4094M29.3951 5.22583L26.4091 21.6489" stroke="#EA203E" stroke-width="2"/>
<rect x="15.2114" y="12.6904" width="8.95802" height="1.493" fill="#EA203E"/>
<rect x="20.437" y="8.95801" width="8.95802" height="1.493" transform="rotate(90 20.437 8.95801)" fill="#EA203E"/>
<path d="M2.17871 36.0942V39H0.819824V31.1797H3.81152C4.68522 31.1797 5.37809 31.4071 5.89014 31.8618C6.40576 32.3166 6.66357 32.9181 6.66357 33.6665C6.66357 34.4328 6.41113 35.029 5.90625 35.4551C5.40495 35.8812 4.70133 36.0942 3.79541 36.0942H2.17871ZM2.17871 35.0039H3.81152C4.29492 35.0039 4.66374 34.8911 4.91797 34.6655C5.1722 34.4364 5.29932 34.1069 5.29932 33.6772C5.29932 33.2547 5.17041 32.9181 4.9126 32.6675C4.65479 32.4132 4.30029 32.2826 3.84912 32.2754H2.17871V35.0039ZM7.41016 36.0405C7.41016 35.4712 7.52295 34.9591 7.74854 34.5044C7.97412 34.0461 8.29102 33.6951 8.69922 33.4517C9.10742 33.2046 9.5765 33.0811 10.1064 33.0811C10.8906 33.0811 11.5262 33.3335 12.0132 33.8384C12.5037 34.3433 12.7687 35.0129 12.8081 35.8472L12.8135 36.1533C12.8135 36.7262 12.7025 37.2383 12.4805 37.6895C12.262 38.1406 11.9469 38.4897 11.5352 38.7368C11.127 38.9839 10.6543 39.1074 10.1172 39.1074C9.2972 39.1074 8.64014 38.8353 8.146 38.291C7.65544 37.7432 7.41016 37.0145 7.41016 36.105V36.0405ZM8.71533 36.1533C8.71533 36.7513 8.83887 37.2204 9.08594 37.5605C9.33301 37.8971 9.67676 38.0654 10.1172 38.0654C10.5576 38.0654 10.8996 37.8936 11.1431 37.5498C11.3901 37.2061 11.5137 36.703 11.5137 36.0405C11.5137 35.4533 11.3866 34.9878 11.1323 34.644C10.8817 34.3003 10.5397 34.1284 10.1064 34.1284C9.68034 34.1284 9.34196 34.2985 9.09131 34.6387C8.84066 34.9753 8.71533 35.4801 8.71533 36.1533ZM15.3057 39H14.0005V30.75H15.3057V39ZM18.7646 37.1309L19.9463 33.1885H21.3374L19.0278 39.8809C18.6733 40.8584 18.0718 41.3472 17.2231 41.3472C17.0334 41.3472 16.8239 41.3149 16.5947 41.2505V40.2407L16.8418 40.2568C17.1712 40.2568 17.4183 40.196 17.583 40.0742C17.7513 39.9561 17.8838 39.7555 17.9805 39.4727L18.1685 38.9731L16.1274 33.1885H17.5347L18.7646 37.1309ZM21.7886 36.0513C21.7886 35.1489 21.9998 34.4292 22.4224 33.8921C22.8485 33.3514 23.4124 33.0811 24.1143 33.0811C24.7767 33.0811 25.2977 33.312 25.6772 33.7739L25.7363 33.1885H26.9126V38.8228C26.9126 39.5854 26.6745 40.187 26.1982 40.6274C25.7256 41.0679 25.0864 41.2881 24.2808 41.2881C23.8547 41.2881 23.4375 41.1986 23.0293 41.0195C22.6247 40.8441 22.3167 40.6131 22.1055 40.3267L22.7231 39.5425C23.1242 40.0187 23.6183 40.2568 24.2056 40.2568C24.6388 40.2568 24.9808 40.1387 25.2314 39.9023C25.4821 39.6696 25.6074 39.3258 25.6074 38.8711V38.479C25.2314 38.8979 24.7301 39.1074 24.1035 39.1074C23.4232 39.1074 22.8664 38.8371 22.4331 38.2964C22.0034 37.7557 21.7886 37.0073 21.7886 36.0513ZM23.0884 36.1641C23.0884 36.7477 23.2065 37.2078 23.4429 37.5444C23.6828 37.8774 24.014 38.0439 24.4365 38.0439C24.9629 38.0439 25.3532 37.8184 25.6074 37.3672V34.8105C25.3604 34.3701 24.9736 34.1499 24.4473 34.1499C24.0176 34.1499 23.6828 34.32 23.4429 34.6602C23.2065 35.0003 23.0884 35.5016 23.0884 36.1641ZM28.0137 36.0405C28.0137 35.4712 28.1265 34.9591 28.3521 34.5044C28.5776 34.0461 28.8945 33.6951 29.3027 33.4517C29.7109 33.2046 30.18 33.0811 30.71 33.0811C31.4941 33.0811 32.1297 33.3335 32.6167 33.8384C33.1073 34.3433 33.3722 35.0129 33.4116 35.8472L33.417 36.1533C33.417 36.7262 33.306 37.2383 33.084 37.6895C32.8656 38.1406 32.5505 38.4897 32.1387 38.7368C31.7305 38.9839 31.2578 39.1074 30.7207 39.1074C29.9007 39.1074 29.2437 38.8353 28.7495 38.291C28.259 37.7432 28.0137 37.0145 28.0137 36.105V36.0405ZM29.3188 36.1533C29.3188 36.7513 29.4424 37.2204 29.6895 37.5605C29.9365 37.8971 30.2803 38.0654 30.7207 38.0654C31.1611 38.0654 31.5031 37.8936 31.7466 37.5498C31.9937 37.2061 32.1172 36.703 32.1172 36.0405C32.1172 35.4533 31.9901 34.9878 31.7358 34.644C31.4852 34.3003 31.1432 34.1284 30.71 34.1284C30.2839 34.1284 29.9455 34.2985 29.6948 34.6387C29.4442 34.9753 29.3188 35.4801 29.3188 36.1533ZM35.7319 33.1885L35.7695 33.8599C36.1992 33.3407 36.7632 33.0811 37.4614 33.0811C38.6717 33.0811 39.2876 33.7739 39.3091 35.1597V39H38.0039V35.2349C38.0039 34.866 37.9233 34.5939 37.7622 34.4185C37.6047 34.2394 37.3451 34.1499 36.9834 34.1499C36.457 34.1499 36.0649 34.388 35.8071 34.8643V39H34.502V33.1885H35.7319Z" fill="#EA203E"/>
</svg>
