<svg width="40" height="42" viewBox="0 0 40 42"  xmlns="http://www.w3.org/2000/svg">
<g>
	<path  d="M11.1,18.7H9.2v6h6v-1.8l8.2,1.9v2.1h6v-6h-1.8L30.3,6h2.1V0h-6v2.1L13,4.2V2.2H7v6h2.1L11.1,18.7z M13.2,22.6
		h-2v-2h2V22.6z M27.4,24.9h-2v-2h2V24.9z M28.4,2h2v2h-2V2z M26.4,4.1V6h1.8l-2.7,14.9h-2.1v1.8l-8.2-1.9v-2.1h-2.1l-2-10.5H13v-2
		L26.4,4.1z M9,4.2h2v2H9V4.2z"/>
	<polygon  points="18.9,17.9 20.4,17.9 20.4,14.2 24.2,14.2 24.2,12.7 20.4,12.7 20.4,9 18.9,9 18.9,12.7 15.2,12.7 
		15.2,14.2 18.9,14.2 	"/>
	<path  d="M3.8,31.2h-3V39h1.4v-2.9h1.6c0.9,0,1.6-0.2,2.1-0.6c0.5-0.4,0.8-1,0.8-1.8c0-0.7-0.3-1.3-0.8-1.8
		C5.4,31.4,4.7,31.2,3.8,31.2z M4.9,34.7C4.7,34.9,4.3,35,3.8,35H2.2v-2.7h1.7c0.5,0,0.8,0.1,1.1,0.4c0.3,0.3,0.4,0.6,0.4,1
		C5.3,34.1,5.2,34.4,4.9,34.7z"/>
	<path  d="M32.6,33.8c-0.5-0.5-1.1-0.8-1.9-0.8c-0.5,0-1,0.1-1.4,0.4c-0.4,0.2-0.7,0.6-1,1.1C28.1,35,28,35.5,28,36v0.1
		c0,0.9,0.2,1.6,0.7,2.2c0.5,0.5,1.2,0.8,2,0.8c0.5,0,1-0.1,1.4-0.4c0.4-0.2,0.7-0.6,0.9-1c0.2-0.5,0.3-1,0.3-1.5l0-0.3
		C33.4,35,33.1,34.3,32.6,33.8z M31.7,37.5c-0.2,0.3-0.6,0.5-1,0.5c-0.4,0-0.8-0.2-1-0.5c-0.2-0.3-0.4-0.8-0.4-1.4
		c0-0.7,0.1-1.2,0.4-1.5c0.3-0.3,0.6-0.5,1-0.5c0.4,0,0.8,0.2,1,0.5c0.3,0.3,0.4,0.8,0.4,1.4C32.1,36.7,32,37.2,31.7,37.5z"/>
	<path  d="M25.7,33.8c-0.4-0.5-0.9-0.7-1.6-0.7c-0.7,0-1.3,0.3-1.7,0.8c-0.4,0.5-0.6,1.3-0.6,2.2c0,1,0.2,1.7,0.6,2.2
		c0.4,0.5,1,0.8,1.7,0.8c0.6,0,1.1-0.2,1.5-0.6v0.4c0,0.5-0.1,0.8-0.4,1c-0.3,0.2-0.6,0.4-1,0.4c-0.6,0-1.1-0.2-1.5-0.7l-0.6,0.8
		c0.2,0.3,0.5,0.5,0.9,0.7c0.4,0.2,0.8,0.3,1.3,0.3c0.8,0,1.4-0.2,1.9-0.7c0.5-0.4,0.7-1,0.7-1.8v-5.6h-1.2L25.7,33.8z M25.6,37.4
		C25.4,37.8,25,38,24.4,38c-0.4,0-0.8-0.2-1-0.5c-0.2-0.3-0.4-0.8-0.4-1.4c0-0.7,0.1-1.2,0.4-1.5c0.2-0.3,0.6-0.5,1-0.5
		c0.5,0,0.9,0.2,1.2,0.7V37.4z"/>
	<path  d="M12,33.8c-0.5-0.5-1.1-0.8-1.9-0.8c-0.5,0-1,0.1-1.4,0.4c-0.4,0.2-0.7,0.6-1,1.1c-0.2,0.5-0.3,1-0.3,1.5v0.1
		c0,0.9,0.2,1.6,0.7,2.2c0.5,0.5,1.2,0.8,2,0.8c0.5,0,1-0.1,1.4-0.4c0.4-0.2,0.7-0.6,0.9-1c0.2-0.5,0.3-1,0.3-1.5l0-0.3
		C12.8,35,12.5,34.3,12,33.8z M11.1,37.5c-0.2,0.3-0.6,0.5-1,0.5s-0.8-0.2-1-0.5c-0.2-0.3-0.4-0.8-0.4-1.4c0-0.7,0.1-1.2,0.4-1.5
		c0.3-0.3,0.6-0.5,1-0.5c0.4,0,0.8,0.2,1,0.5c0.3,0.3,0.4,0.8,0.4,1.4C11.5,36.7,11.4,37.2,11.1,37.5z"/>
	<path  d="M37.5,33.1c-0.7,0-1.3,0.3-1.7,0.8l0-0.7h-1.2V39h1.3v-4.1c0.3-0.5,0.6-0.7,1.2-0.7c0.4,0,0.6,0.1,0.8,0.3
		c0.2,0.2,0.2,0.4,0.2,0.8V39h1.3v-3.8C39.3,33.8,38.7,33.1,37.5,33.1z"/>
	<rect x="14" y="30.8"  width="1.3" height="8.3"/>
	<path  d="M18.8,37.1l-1.2-3.9h-1.4l2,5.8L18,39.5c-0.1,0.3-0.2,0.5-0.4,0.6c-0.2,0.1-0.4,0.2-0.7,0.2l-0.2,0v1
		c0.2,0.1,0.4,0.1,0.6,0.1c0.8,0,1.5-0.5,1.8-1.5l2.3-6.7h-1.4L18.8,37.1z"/>
</g>
</svg>
