<svg width="32" height="45" viewBox="0 0 32 45" xmlns="http://www.w3.org/2000/svg">

<path  d="M2,16.6c0-5.1,4.1-9.2,9.2-9.2h15.5l-4.1,4l1.4,1.4l6.5-6.4L24,0l-1.4,1.4l4.1,4H11.2C5,5.4,0,10.5,0,16.6
	c0,6.2,5,11.2,11.2,11.2h17.9v-2H11.2C6.1,25.8,2,21.7,2,16.6z"/>
<path  d="M6.1,38.2H4.6v3H3.3v-7.8H6c0.9,0,1.6,0.2,2.1,0.6c0.5,0.4,0.7,1,0.7,1.8c0,0.5-0.1,1-0.4,1.3
	c-0.3,0.4-0.6,0.6-1.1,0.8l1.8,3.3v0.1H7.7L6.1,38.2z M4.6,37.1H6c0.5,0,0.8-0.1,1.1-0.3c0.3-0.2,0.4-0.5,0.4-1c0-0.4-0.1-0.7-0.4-1
	c-0.2-0.2-0.6-0.3-1.1-0.4H4.6V37.1z M12.6,41.3c-0.8,0-1.5-0.3-2-0.8C10,40,9.8,39.3,9.8,38.5v-0.2c0-0.6,0.1-1.1,0.3-1.6
	c0.2-0.5,0.5-0.8,0.9-1.1c0.4-0.3,0.9-0.4,1.4-0.4c0.8,0,1.4,0.3,1.8,0.8c0.4,0.5,0.6,1.2,0.6,2.1v0.5h-3.8c0,0.5,0.2,0.9,0.5,1.1
	c0.3,0.3,0.6,0.4,1.1,0.4c0.6,0,1.1-0.2,1.5-0.7l0.7,0.7c-0.2,0.3-0.5,0.6-0.9,0.8C13.5,41.2,13,41.3,12.6,41.3z M12.4,36.4
	c-0.4,0-0.6,0.1-0.9,0.4c-0.2,0.3-0.4,0.6-0.4,1h2.5v-0.1c0-0.4-0.1-0.8-0.3-1C13,36.5,12.8,36.4,12.4,36.4z M15.7,38.3
	c0-0.9,0.2-1.6,0.6-2.2c0.4-0.5,1-0.8,1.7-0.8c0.6,0,1.1,0.2,1.5,0.6v-3h1.3v8.3h-1.2l-0.1-0.6c-0.4,0.5-0.9,0.7-1.6,0.7
	c-0.7,0-1.2-0.3-1.7-0.8C15.9,40,15.7,39.2,15.7,38.3z M17,38.4c0,0.6,0.1,1.1,0.3,1.4c0.2,0.3,0.6,0.5,1,0.5c0.5,0,0.9-0.2,1.2-0.7
	v-2.5c-0.2-0.5-0.6-0.7-1.2-0.7c-0.4,0-0.7,0.2-1,0.5C17.1,37.2,17,37.7,17,38.4z M21.9,38.3c0-0.6,0.1-1.1,0.3-1.5
	c0.2-0.5,0.5-0.8,1-1.1c0.4-0.2,0.9-0.4,1.4-0.4c0.8,0,1.4,0.3,1.9,0.8c0.5,0.5,0.8,1.2,0.8,2l0,0.3c0,0.6-0.1,1.1-0.3,1.5
	c-0.2,0.5-0.5,0.8-0.9,1c-0.4,0.2-0.9,0.4-1.4,0.4c-0.8,0-1.5-0.3-2-0.8C22.1,40,21.9,39.2,21.9,38.3L21.9,38.3z M23.2,38.4
	c0,0.6,0.1,1.1,0.4,1.4c0.2,0.3,0.6,0.5,1,0.5c0.4,0,0.8-0.2,1-0.5c0.2-0.3,0.4-0.8,0.4-1.5c0-0.6-0.1-1.1-0.4-1.4
	c-0.3-0.3-0.6-0.5-1-0.5c-0.4,0-0.8,0.2-1,0.5C23.3,37.2,23.2,37.7,23.2,38.4z"/>
</svg>
