<svg width="31" height="45" viewBox="0 0 31 45" fill="none" xmlns="http://www.w3.org/2000/svg">
<path d="M29.1052 7.21191H11.1978C5.58907 7.21191 1 11.801 1 17.4089C1 23.0176 5.58907 27.6067 11.1978 27.6067H29.1052" stroke="#81CDBA" stroke-width="2" stroke-miterlimit="10"/>
<path d="M23.3203 12.9447L29.1049 7.21187L23.3203 1.479" stroke="#81CDBA" stroke-width="2" stroke-miterlimit="10"/>
<path d="M5.04639 38.9868H3.53174V42H2.17285V34.1797H4.92285C5.8252 34.1797 6.52165 34.382 7.01221 34.7866C7.50277 35.1912 7.74805 35.7767 7.74805 36.543C7.74805 37.0658 7.62093 37.5044 7.3667 37.8589C7.11605 38.2098 6.76514 38.4801 6.31396 38.6699L8.07031 41.9302V42H6.61475L5.04639 38.9868ZM3.53174 37.8965H4.92822C5.38656 37.8965 5.74463 37.7819 6.00244 37.5527C6.26025 37.32 6.38916 37.0031 6.38916 36.6021C6.38916 36.1831 6.26921 35.859 6.0293 35.6299C5.79297 35.4007 5.43848 35.2826 4.96582 35.2754H3.53174V37.8965ZM11.4702 42.1074C10.6431 42.1074 9.97168 41.8478 9.45605 41.3286C8.94401 40.8058 8.68799 40.1112 8.68799 39.2446V39.0835C8.68799 38.5034 8.79899 37.986 9.021 37.5312C9.24658 37.0729 9.56169 36.7166 9.96631 36.4624C10.3709 36.2082 10.8221 36.0811 11.3198 36.0811C12.1112 36.0811 12.7217 36.3335 13.1514 36.8384C13.5846 37.3433 13.8013 38.0576 13.8013 38.9814V39.5078H10.0039C10.0433 39.9876 10.2026 40.3672 10.4819 40.6465C10.7648 40.9258 11.1193 41.0654 11.5454 41.0654C12.1434 41.0654 12.6304 40.8237 13.0063 40.3403L13.71 41.0117C13.4772 41.359 13.1657 41.6294 12.7754 41.8228C12.3887 42.0125 11.9536 42.1074 11.4702 42.1074ZM11.3145 37.1284C10.9564 37.1284 10.6663 37.2537 10.4443 37.5044C10.2259 37.755 10.0863 38.1042 10.0254 38.5518H12.5122V38.4551C12.4836 38.0182 12.3672 37.6888 12.1631 37.4668C11.959 37.2412 11.6761 37.1284 11.3145 37.1284ZM14.5747 39.0513C14.5747 38.1561 14.7824 37.4382 15.1978 36.8975C15.6131 36.3532 16.1699 36.0811 16.8682 36.0811C17.484 36.0811 17.9818 36.2959 18.3613 36.7256V33.75H19.6665V42H18.4849L18.4204 41.3984C18.0301 41.8711 17.5091 42.1074 16.8574 42.1074C16.1771 42.1074 15.6257 41.8335 15.2031 41.2856C14.7842 40.7378 14.5747 39.993 14.5747 39.0513ZM15.8799 39.1641C15.8799 39.7549 15.9927 40.2168 16.2183 40.5498C16.4474 40.8792 16.7715 41.0439 17.1904 41.0439C17.724 41.0439 18.1143 40.8058 18.3613 40.3296V37.8481C18.1214 37.3826 17.7347 37.1499 17.2012 37.1499C16.7786 37.1499 16.4528 37.3182 16.2236 37.6548C15.9945 37.9878 15.8799 38.4909 15.8799 39.1641ZM20.7837 39.0405C20.7837 38.4712 20.8965 37.9591 21.1221 37.5044C21.3477 37.0461 21.6646 36.6951 22.0728 36.4517C22.481 36.2046 22.95 36.0811 23.48 36.0811C24.2642 36.0811 24.8997 36.3335 25.3867 36.8384C25.8773 37.3433 26.1423 38.0129 26.1816 38.8472L26.187 39.1533C26.187 39.7262 26.076 40.2383 25.854 40.6895C25.6356 41.1406 25.3205 41.4897 24.9087 41.7368C24.5005 41.9839 24.0278 42.1074 23.4907 42.1074C22.6707 42.1074 22.0137 41.8353 21.5195 41.291C21.029 40.7432 20.7837 40.0145 20.7837 39.105V39.0405ZM22.0889 39.1533C22.0889 39.7513 22.2124 40.2204 22.4595 40.5605C22.7065 40.8971 23.0503 41.0654 23.4907 41.0654C23.9312 41.0654 24.2731 40.8936 24.5166 40.5498C24.7637 40.2061 24.8872 39.703 24.8872 39.0405C24.8872 38.4533 24.7601 37.9878 24.5059 37.644C24.2552 37.3003 23.9132 37.1284 23.48 37.1284C23.0539 37.1284 22.7155 37.2985 22.4648 37.6387C22.2142 37.9753 22.0889 38.4801 22.0889 39.1533Z" fill="#81CDBA"/>
</svg>
