<svg width="94" height="26" viewBox="0 0 94 26" fill="none" xmlns="http://www.w3.org/2000/svg">
<rect x="1" y="1" width="92" height="24" rx="4" stroke="#81CDBA" stroke-width="2"/>
<path d="M36.2148 13.7129H34.5625V17H33.0801V8.46875H36.0801C37.0645 8.46875 37.8242 8.68945 38.3594 9.13086C38.8945 9.57227 39.1621 10.2109 39.1621 11.0469C39.1621 11.6172 39.0234 12.0957 38.7461 12.4824C38.4727 12.8652 38.0898 13.1602 37.5977 13.3672L39.5137 16.9238V17H37.9258L36.2148 13.7129ZM34.5625 12.5234H36.0859C36.5859 12.5234 36.9766 12.3984 37.2578 12.1484C37.5391 11.8945 37.6797 11.5488 37.6797 11.1113C37.6797 10.6543 37.5488 10.3008 37.2871 10.0508C37.0293 9.80078 36.6426 9.67188 36.127 9.66406H34.5625V12.5234ZM43.2227 17.1172C42.3203 17.1172 41.5879 16.834 41.0254 16.2676C40.4668 15.6973 40.1875 14.9395 40.1875 13.9941V13.8184C40.1875 13.1855 40.3086 12.6211 40.5508 12.125C40.7969 11.625 41.1406 11.2363 41.582 10.959C42.0234 10.6816 42.5156 10.543 43.0586 10.543C43.9219 10.543 44.5879 10.8184 45.0566 11.3691C45.5293 11.9199 45.7656 12.6992 45.7656 13.707V14.2812H41.623C41.666 14.8047 41.8398 15.2188 42.1445 15.5234C42.4531 15.8281 42.8398 15.9805 43.3047 15.9805C43.957 15.9805 44.4883 15.7168 44.8984 15.1895L45.666 15.9219C45.4121 16.3008 45.0723 16.5957 44.6465 16.8066C44.2246 17.0137 43.75 17.1172 43.2227 17.1172ZM43.0527 11.6855C42.6621 11.6855 42.3457 11.8223 42.1035 12.0957C41.8652 12.3691 41.7129 12.75 41.6465 13.2383H44.3594V13.1328C44.3281 12.6562 44.2012 12.2969 43.9785 12.0547C43.7559 11.8086 43.4473 11.6855 43.0527 11.6855ZM50.4297 15.2773C50.4297 15.0234 50.3242 14.8301 50.1133 14.6973C49.9062 14.5645 49.5605 14.4473 49.0762 14.3457C48.5918 14.2441 48.1875 14.1152 47.8633 13.959C47.1523 13.6152 46.7969 13.1172 46.7969 12.4648C46.7969 11.918 47.0273 11.4609 47.4883 11.0938C47.9492 10.7266 48.5352 10.543 49.2461 10.543C50.0039 10.543 50.6152 10.7305 51.0801 11.1055C51.5488 11.4805 51.7832 11.9668 51.7832 12.5645H50.3594C50.3594 12.291 50.2578 12.0645 50.0547 11.8848C49.8516 11.7012 49.582 11.6094 49.2461 11.6094C48.9336 11.6094 48.6777 11.6816 48.4785 11.8262C48.2832 11.9707 48.1855 12.1641 48.1855 12.4062C48.1855 12.625 48.2773 12.7949 48.4609 12.916C48.6445 13.0371 49.0156 13.1602 49.5742 13.2852C50.1328 13.4062 50.5703 13.5527 50.8867 13.7246C51.207 13.8926 51.4434 14.0957 51.5957 14.334C51.752 14.5723 51.8301 14.8613 51.8301 15.2012C51.8301 15.7715 51.5938 16.2344 51.1211 16.5898C50.6484 16.9414 50.0293 17.1172 49.2637 17.1172C48.7441 17.1172 48.2812 17.0234 47.875 16.8359C47.4688 16.6484 47.1523 16.3906 46.9258 16.0625C46.6992 15.7344 46.5859 15.3809 46.5859 15.002H47.9688C47.9883 15.3379 48.1152 15.5977 48.3496 15.7812C48.584 15.9609 48.8945 16.0508 49.2812 16.0508C49.6562 16.0508 49.9414 15.9805 50.1367 15.8398C50.332 15.6953 50.4297 15.5078 50.4297 15.2773ZM55.8672 17.1172C54.9648 17.1172 54.2324 16.834 53.6699 16.2676C53.1113 15.6973 52.832 14.9395 52.832 13.9941V13.8184C52.832 13.1855 52.9531 12.6211 53.1953 12.125C53.4414 11.625 53.7852 11.2363 54.2266 10.959C54.668 10.6816 55.1602 10.543 55.7031 10.543C56.5664 10.543 57.2324 10.8184 57.7012 11.3691C58.1738 11.9199 58.4102 12.6992 58.4102 13.707V14.2812H54.2676C54.3105 14.8047 54.4844 15.2188 54.7891 15.5234C55.0977 15.8281 55.4844 15.9805 55.9492 15.9805C56.6016 15.9805 57.1328 15.7168 57.543 15.1895L58.3105 15.9219C58.0566 16.3008 57.7168 16.5957 57.291 16.8066C56.8691 17.0137 56.3945 17.1172 55.8672 17.1172ZM55.6973 11.6855C55.3066 11.6855 54.9902 11.8223 54.748 12.0957C54.5098 12.3691 54.3574 12.75 54.291 13.2383H57.0039V13.1328C56.9727 12.6562 56.8457 12.2969 56.623 12.0547C56.4004 11.8086 56.0918 11.6855 55.6973 11.6855ZM61.3047 9.11914V10.6602H62.4238V11.7148H61.3047V15.2539C61.3047 15.4961 61.3516 15.6719 61.4453 15.7812C61.543 15.8867 61.7148 15.9395 61.9609 15.9395C62.125 15.9395 62.291 15.9199 62.459 15.8809V16.9824C62.1348 17.0723 61.8223 17.1172 61.5215 17.1172C60.4277 17.1172 59.8809 16.5137 59.8809 15.3066V11.7148H58.8379V10.6602H59.8809V9.11914H61.3047Z" fill="#81CDBA"/>
</svg>
