<svg width="94" height="26" viewBox="0 0 94 26" fill="none" xmlns="http://www.w3.org/2000/svg">
<rect x="1" y="1" width="92" height="24" rx="4" stroke="#81CDBA" stroke-width="2"/>
<path d="M39.3535 14.8027C39.3535 14.4277 39.2207 14.1387 38.9551 13.9355C38.6934 13.7324 38.2188 13.5273 37.5312 13.3203C36.8438 13.1133 36.2969 12.8828 35.8906 12.6289C35.1133 12.1406 34.7246 11.5039 34.7246 10.7188C34.7246 10.0312 35.0039 9.46484 35.5625 9.01953C36.125 8.57422 36.8535 8.35156 37.748 8.35156C38.3418 8.35156 38.8711 8.46094 39.3359 8.67969C39.8008 8.89844 40.166 9.21094 40.4316 9.61719C40.6973 10.0195 40.8301 10.4668 40.8301 10.959H39.3535C39.3535 10.5137 39.2129 10.166 38.9316 9.91602C38.6543 9.66211 38.2559 9.53516 37.7363 9.53516C37.252 9.53516 36.875 9.63867 36.6055 9.8457C36.3398 10.0527 36.207 10.3418 36.207 10.7129C36.207 11.0254 36.3516 11.2871 36.6406 11.498C36.9297 11.7051 37.4062 11.9082 38.0703 12.1074C38.7344 12.3027 39.2676 12.5273 39.6699 12.7812C40.0723 13.0312 40.3672 13.3203 40.5547 13.6484C40.7422 13.9727 40.8359 14.3535 40.8359 14.791C40.8359 15.502 40.5625 16.0684 40.0156 16.4902C39.4727 16.9082 38.7344 17.1172 37.8008 17.1172C37.1836 17.1172 36.6152 17.0039 36.0957 16.7773C35.5801 16.5469 35.1777 16.2305 34.8887 15.8281C34.6035 15.4258 34.4609 14.957 34.4609 14.4219H35.9434C35.9434 14.9062 36.1035 15.2812 36.4238 15.5469C36.7441 15.8125 37.2031 15.9453 37.8008 15.9453C38.3164 15.9453 38.7031 15.8418 38.9609 15.6348C39.2227 15.4238 39.3535 15.1465 39.3535 14.8027ZM45.7871 17C45.7246 16.8789 45.6699 16.6816 45.623 16.4082C45.1699 16.8809 44.6152 17.1172 43.959 17.1172C43.3223 17.1172 42.8027 16.9355 42.4004 16.5723C41.998 16.209 41.7969 15.7598 41.7969 15.2246C41.7969 14.5488 42.0469 14.0312 42.5469 13.6719C43.0508 13.3086 43.7695 13.127 44.7031 13.127H45.5762V12.7109C45.5762 12.3828 45.4844 12.1211 45.3008 11.9258C45.1172 11.7266 44.8379 11.627 44.4629 11.627C44.1387 11.627 43.873 11.709 43.666 11.873C43.459 12.0332 43.3555 12.2383 43.3555 12.4883H41.9316C41.9316 12.1406 42.0469 11.8164 42.2773 11.5156C42.5078 11.2109 42.8203 10.9727 43.2148 10.8008C43.6133 10.6289 44.0566 10.543 44.5449 10.543C45.2871 10.543 45.8789 10.7305 46.3203 11.1055C46.7617 11.4766 46.9883 12 47 12.6758V15.5352C47 16.1055 47.0801 16.5605 47.2402 16.9004V17H45.7871ZM44.2227 15.9746C44.5039 15.9746 44.7676 15.9062 45.0137 15.7695C45.2637 15.6328 45.4512 15.4492 45.5762 15.2188V14.0234H44.8086C44.2812 14.0234 43.8848 14.1152 43.6191 14.2988C43.3535 14.4824 43.2207 14.7422 43.2207 15.0781C43.2207 15.3516 43.3105 15.5703 43.4902 15.7344C43.6738 15.8945 43.918 15.9746 44.2227 15.9746ZM50.6328 15.1953L51.9746 10.6602H53.4453L51.248 17H50.0117L47.7969 10.6602H49.2734L50.6328 15.1953ZM57.0488 17.1172C56.1465 17.1172 55.4141 16.834 54.8516 16.2676C54.293 15.6973 54.0137 14.9395 54.0137 13.9941V13.8184C54.0137 13.1855 54.1348 12.6211 54.377 12.125C54.623 11.625 54.9668 11.2363 55.4082 10.959C55.8496 10.6816 56.3418 10.543 56.8848 10.543C57.748 10.543 58.4141 10.8184 58.8828 11.3691C59.3555 11.9199 59.5918 12.6992 59.5918 13.707V14.2812H55.4492C55.4922 14.8047 55.666 15.2188 55.9707 15.5234C56.2793 15.8281 56.666 15.9805 57.1309 15.9805C57.7832 15.9805 58.3145 15.7168 58.7246 15.1895L59.4922 15.9219C59.2383 16.3008 58.8984 16.5957 58.4727 16.8066C58.0508 17.0137 57.5762 17.1172 57.0488 17.1172ZM56.8789 11.6855C56.4883 11.6855 56.1719 11.8223 55.9297 12.0957C55.6914 12.3691 55.5391 12.75 55.4727 13.2383H58.1855V13.1328C58.1543 12.6562 58.0273 12.2969 57.8047 12.0547C57.582 11.8086 57.2734 11.6855 56.8789 11.6855Z" fill="#81CDBA"/>
</svg>
