<svg width="32" height="45" viewBox="0 0 32 45" fill="none" xmlns="http://www.w3.org/2000/svg">
<path d="M2.00031 7.21191H19.9077C25.5164 7.21191 30.1055 11.801 30.1055 17.4089C30.1055 23.0176 25.5164 27.6067 19.9077 27.6067H2.00031" stroke="#81CDBA" stroke-width="2" stroke-miterlimit="10"/>
<path d="M7.78516 12.9447L2.00062 7.21187L7.78516 1.479" stroke="#81CDBA" stroke-width="2" stroke-miterlimit="10"/>
<path d="M9.62988 34.1797V39.4058C9.62988 40.2365 9.36312 40.8953 8.82959 41.3823C8.29964 41.8657 7.59245 42.1074 6.70801 42.1074C5.81283 42.1074 5.10205 41.8693 4.57568 41.3931C4.04932 40.9132 3.78613 40.249 3.78613 39.4004V34.1797H5.13965V39.4111C5.13965 39.9339 5.27214 40.3332 5.53711 40.6089C5.80208 40.8846 6.19238 41.0225 6.70801 41.0225C7.75358 41.0225 8.27637 40.471 8.27637 39.3682V34.1797H9.62988ZM12.1704 36.1885L12.208 36.8599C12.6377 36.3407 13.2017 36.0811 13.8999 36.0811C15.1102 36.0811 15.7261 36.7739 15.7476 38.1597V42H14.4424V38.2349C14.4424 37.866 14.3618 37.5939 14.2007 37.4185C14.0431 37.2394 13.7835 37.1499 13.4219 37.1499C12.8955 37.1499 12.5034 37.388 12.2456 37.8643V42H10.9404V36.1885H12.1704ZM16.8379 39.0513C16.8379 38.1561 17.0456 37.4382 17.4609 36.8975C17.8763 36.3532 18.4331 36.0811 19.1313 36.0811C19.7472 36.0811 20.245 36.2959 20.6245 36.7256V33.75H21.9297V42H20.748L20.6836 41.3984C20.2933 41.8711 19.7723 42.1074 19.1206 42.1074C18.4403 42.1074 17.8888 41.8335 17.4663 41.2856C17.0474 40.7378 16.8379 39.993 16.8379 39.0513ZM18.1431 39.1641C18.1431 39.7549 18.2559 40.2168 18.4814 40.5498C18.7106 40.8792 19.0347 41.0439 19.4536 41.0439C19.9871 41.0439 20.3774 40.8058 20.6245 40.3296V37.8481C20.3846 37.3826 19.9979 37.1499 19.4644 37.1499C19.0418 37.1499 18.716 37.3182 18.4868 37.6548C18.2576 37.9878 18.1431 38.4909 18.1431 39.1641ZM23.0469 39.0405C23.0469 38.4712 23.1597 37.9591 23.3853 37.5044C23.6108 37.0461 23.9277 36.6951 24.3359 36.4517C24.7441 36.2046 25.2132 36.0811 25.7432 36.0811C26.5273 36.0811 27.1629 36.3335 27.6499 36.8384C28.1405 37.3433 28.4054 38.0129 28.4448 38.8472L28.4502 39.1533C28.4502 39.7262 28.3392 40.2383 28.1172 40.6895C27.8988 41.1406 27.5837 41.4897 27.1719 41.7368C26.7637 41.9839 26.291 42.1074 25.7539 42.1074C24.9339 42.1074 24.2769 41.8353 23.7827 41.291C23.2922 40.7432 23.0469 40.0145 23.0469 39.105V39.0405ZM24.3521 39.1533C24.3521 39.7513 24.4756 40.2204 24.7227 40.5605C24.9697 40.8971 25.3135 41.0654 25.7539 41.0654C26.1943 41.0654 26.5363 40.8936 26.7798 40.5498C27.0269 40.2061 27.1504 39.703 27.1504 39.0405C27.1504 38.4533 27.0233 37.9878 26.769 37.644C26.5184 37.3003 26.1764 37.1284 25.7432 37.1284C25.3171 37.1284 24.9787 37.2985 24.728 37.6387C24.4774 37.9753 24.3521 38.4801 24.3521 39.1533Z" fill="#81CDBA"/>
</svg>
