<svg width="16" height="9" viewBox="0 0 16 9" fill="none" xmlns="http://www.w3.org/2000/svg">
<path d="M7.71857 8.49981C10.6838 8.49981 12.5377 6.78182 14.7226 4.5015C12.1402 1.87386 10.1454 0.5 7.71857 0.5C4.85334 0.5 2.5286 2.4519 0.680373 4.51578C1.53767 5.39514 2.50185 6.33159 3.59684 7.07934C4.82615 7.91882 6.19131 8.49981 7.71857 8.49981Z" stroke="#81CDBA" stroke-miterlimit="10"/>
<path d="M7.71893 6.81236C9.00178 6.81236 10.0439 5.7718 10.0439 4.50139C10.0439 3.23098 9.00178 2.19043 7.71893 2.19043C6.43529 2.19043 5.39392 3.22839 5.39392 4.49802C5.39392 5.77258 6.43347 6.81236 7.71893 6.81236Z" stroke="#81CDBA" stroke-miterlimit="10"/>
<path d="M7.71861 5.40565C8.22484 5.40565 8.63281 4.99612 8.63281 4.49848C8.63281 4.00083 8.22484 3.59131 7.71861 3.59131C7.21238 3.59131 6.80441 4.00083 6.80441 4.49848C6.80441 4.99612 7.21238 5.40565 7.71861 5.40565Z" stroke="#81CDBA" stroke-miterlimit="10"/>
</svg>
