<svg width="49" height="49" viewBox="0 0 49 49" fill="none" xmlns="http://www.w3.org/2000/svg">
<rect x="23.5391" y="17.9009" width="2.49949" height="17.8119" transform="rotate(49.4973 23.5391 17.9009)" fill="#81CDBA"/>
<path d="M35.011 22.7547C31.0475 26.7182 24.6664 26.7396 20.7584 22.8315C16.8504 18.9235 16.8718 12.5425 20.8353 8.57894C24.7988 4.61541 31.1799 4.59409 35.0879 8.5021C38.9959 12.4101 38.9746 18.7912 35.011 22.7547Z" fill="white" stroke="#81CDBA" stroke-width="2"/>
<rect x="23.5205" y="14.9302" width="8.95802" height="1.493" fill="#81CDBA"/>
<path d="M2.21533 44.915H6.39404V46H0.571777V45.1191L4.61621 39.2754H0.598633V38.1797H6.26514V39.0391L2.21533 44.915ZM7.07617 43.0405C7.07617 42.4712 7.18896 41.9591 7.41455 41.5044C7.64014 41.0461 7.95703 40.6951 8.36523 40.4517C8.77344 40.2046 9.24251 40.0811 9.77246 40.0811C10.5566 40.0811 11.1922 40.3335 11.6792 40.8384C12.1698 41.3433 12.4347 42.0129 12.4741 42.8472L12.4795 43.1533C12.4795 43.7262 12.3685 44.2383 12.1465 44.6895C11.9281 45.1406 11.613 45.4897 11.2012 45.7368C10.793 45.9839 10.3203 46.1074 9.7832 46.1074C8.96322 46.1074 8.30615 45.8353 7.81201 45.291C7.32145 44.7432 7.07617 44.0145 7.07617 43.105V43.0405ZM8.38135 43.1533C8.38135 43.7513 8.50488 44.2204 8.75195 44.5605C8.99902 44.8971 9.34277 45.0654 9.7832 45.0654C10.2236 45.0654 10.5656 44.8936 10.8091 44.5498C11.0562 44.2061 11.1797 43.703 11.1797 43.0405C11.1797 42.4533 11.0526 41.9878 10.7983 41.644C10.5477 41.3003 10.2057 41.1284 9.77246 41.1284C9.34635 41.1284 9.00798 41.2985 8.75732 41.6387C8.50667 41.9753 8.38135 42.4801 8.38135 43.1533ZM13.3389 43.0405C13.3389 42.4712 13.4517 41.9591 13.6772 41.5044C13.9028 41.0461 14.2197 40.6951 14.6279 40.4517C15.0361 40.2046 15.5052 40.0811 16.0352 40.0811C16.8193 40.0811 17.4549 40.3335 17.9419 40.8384C18.4325 41.3433 18.6974 42.0129 18.7368 42.8472L18.7422 43.1533C18.7422 43.7262 18.6312 44.2383 18.4092 44.6895C18.1908 45.1406 17.8757 45.4897 17.4639 45.7368C17.0557 45.9839 16.583 46.1074 16.0459 46.1074C15.2259 46.1074 14.5688 45.8353 14.0747 45.291C13.5841 44.7432 13.3389 44.0145 13.3389 43.105V43.0405ZM14.644 43.1533C14.644 43.7513 14.7676 44.2204 15.0146 44.5605C15.2617 44.8971 15.6055 45.0654 16.0459 45.0654C16.4863 45.0654 16.8283 44.8936 17.0718 44.5498C17.3188 44.2061 17.4424 43.703 17.4424 43.0405C17.4424 42.4533 17.3153 41.9878 17.061 41.644C16.8104 41.3003 16.4684 41.1284 16.0352 41.1284C15.609 41.1284 15.2707 41.2985 15.02 41.6387C14.7694 41.9753 14.644 42.4801 14.644 43.1533ZM21.0732 40.1885L21.1108 40.7954C21.519 40.3192 22.0776 40.0811 22.7866 40.0811C23.5636 40.0811 24.0954 40.3783 24.3818 40.9727C24.8044 40.3783 25.3988 40.0811 26.165 40.0811C26.806 40.0811 27.2822 40.2583 27.5938 40.6128C27.9089 40.9673 28.07 41.4901 28.0771 42.1812V46H26.772V42.2188C26.772 41.8499 26.6914 41.5796 26.5303 41.4077C26.3691 41.2358 26.1024 41.1499 25.73 41.1499C25.4328 41.1499 25.1893 41.2305 24.9995 41.3916C24.8133 41.5492 24.6826 41.7568 24.6074 42.0146L24.6128 46H23.3076V42.1758C23.2897 41.4919 22.9406 41.1499 22.2603 41.1499C21.7375 41.1499 21.3669 41.363 21.1484 41.7891V46H19.8433V40.1885H21.0732ZM38.5239 42.2939C38.5239 43.0602 38.3914 43.7334 38.1265 44.3135C37.8615 44.89 37.4819 45.334 36.9878 45.6455C36.4972 45.9535 35.9315 46.1074 35.2905 46.1074C34.6567 46.1074 34.091 45.9535 33.5933 45.6455C33.0991 45.334 32.716 44.8918 32.4438 44.3188C32.1753 43.7459 32.0392 43.0853 32.0356 42.3369V41.8965C32.0356 41.1338 32.1699 40.4606 32.4385 39.877C32.7106 39.2933 33.092 38.8475 33.5825 38.5396C34.0767 38.228 34.6424 38.0723 35.2798 38.0723C35.9172 38.0723 36.4811 38.2262 36.9717 38.5342C37.4658 38.8385 37.8472 39.279 38.1157 39.8555C38.3843 40.4284 38.5203 41.0962 38.5239 41.8589V42.2939ZM37.165 41.8857C37.165 41.0192 37.0003 40.355 36.6709 39.8931C36.3451 39.4312 35.8813 39.2002 35.2798 39.2002C34.6925 39.2002 34.2324 39.4312 33.8994 39.8931C33.57 40.3514 33.4017 41.0013 33.3945 41.8428V42.2939C33.3945 43.1533 33.561 43.8175 33.894 44.2866C34.2306 44.7557 34.6961 44.9902 35.2905 44.9902C35.8921 44.9902 36.354 44.7611 36.6763 44.3027C37.0021 43.8444 37.165 43.1748 37.165 42.2939V41.8857ZM43.272 45.4307C42.8888 45.8818 42.3446 46.1074 41.6392 46.1074C41.009 46.1074 40.5309 45.923 40.2051 45.5542C39.8828 45.1854 39.7217 44.6519 39.7217 43.9536V40.1885H41.0269V43.9375C41.0269 44.6751 41.333 45.0439 41.9453 45.0439C42.5791 45.0439 43.007 44.8166 43.229 44.3618V40.1885H44.5342V46H43.3042L43.272 45.4307ZM47.499 38.7759V40.1885H48.5249V41.1553H47.499V44.3994C47.499 44.6214 47.542 44.7826 47.6279 44.8828C47.7174 44.9795 47.875 45.0278 48.1006 45.0278C48.251 45.0278 48.4032 45.0099 48.5571 44.9741V45.9839C48.2599 46.0662 47.9735 46.1074 47.6978 46.1074C46.6951 46.1074 46.1938 45.5542 46.1938 44.4478V41.1553H45.2378V40.1885H46.1938V38.7759H47.499Z" fill="#81CDBA"/>
</svg>
