<svg width="41" height="49" viewBox="0 0 41 49" fill="none" xmlns="http://www.w3.org/2000/svg">
<rect x="19.5391" y="17.9014" width="2.49949" height="17.8119" transform="rotate(49.4973 19.5391 17.9014)" fill="#EA203E"/>
<path d="M31.011 22.7547C27.0475 26.7182 20.6664 26.7396 16.7584 22.8315C12.8504 18.9235 12.8718 12.5425 16.8353 8.57894C20.7988 4.61541 27.1799 4.59409 31.0879 8.5021C34.9959 12.4101 34.9746 18.7912 31.011 22.7547Z" fill="white" stroke="#EA203E" stroke-width="2"/>
<rect x="19.521" y="14.9297" width="8.95802" height="1.493" fill="#EA203E"/>
<rect x="24.7466" y="11.1973" width="8.95802" height="1.493" transform="rotate(90 24.7466 11.1973)" fill="#EA203E"/>
<path d="M2.28662 44.915H6.46533V46H0.643066V45.1191L4.6875 39.2754H0.669922V38.1797H6.33643V39.0391L2.28662 44.915ZM7.14746 43.0405C7.14746 42.4712 7.26025 41.9591 7.48584 41.5044C7.71143 41.0461 8.02832 40.6951 8.43652 40.4517C8.84473 40.2046 9.3138 40.0811 9.84375 40.0811C10.6279 40.0811 11.2635 40.3335 11.7505 40.8384C12.241 41.3433 12.506 42.0129 12.5454 42.8472L12.5508 43.1533C12.5508 43.7262 12.4398 44.2383 12.2178 44.6895C11.9993 45.1406 11.6842 45.4897 11.2725 45.7368C10.8643 45.9839 10.3916 46.1074 9.85449 46.1074C9.03451 46.1074 8.37744 45.8353 7.8833 45.291C7.39274 44.7432 7.14746 44.0145 7.14746 43.105V43.0405ZM8.45264 43.1533C8.45264 43.7513 8.57617 44.2204 8.82324 44.5605C9.07031 44.8971 9.41406 45.0654 9.85449 45.0654C10.2949 45.0654 10.6369 44.8936 10.8804 44.5498C11.1274 44.2061 11.251 43.703 11.251 43.0405C11.251 42.4533 11.1239 41.9878 10.8696 41.644C10.619 41.3003 10.277 41.1284 9.84375 41.1284C9.41764 41.1284 9.07926 41.2985 8.82861 41.6387C8.57796 41.9753 8.45264 42.4801 8.45264 43.1533ZM13.4102 43.0405C13.4102 42.4712 13.5229 41.9591 13.7485 41.5044C13.9741 41.0461 14.291 40.6951 14.6992 40.4517C15.1074 40.2046 15.5765 40.0811 16.1064 40.0811C16.8906 40.0811 17.5262 40.3335 18.0132 40.8384C18.5037 41.3433 18.7687 42.0129 18.8081 42.8472L18.8135 43.1533C18.8135 43.7262 18.7025 44.2383 18.4805 44.6895C18.262 45.1406 17.9469 45.4897 17.5352 45.7368C17.127 45.9839 16.6543 46.1074 16.1172 46.1074C15.2972 46.1074 14.6401 45.8353 14.146 45.291C13.6554 44.7432 13.4102 44.0145 13.4102 43.105V43.0405ZM14.7153 43.1533C14.7153 43.7513 14.8389 44.2204 15.0859 44.5605C15.333 44.8971 15.6768 45.0654 16.1172 45.0654C16.5576 45.0654 16.8996 44.8936 17.1431 44.5498C17.3901 44.2061 17.5137 43.703 17.5137 43.0405C17.5137 42.4533 17.3866 41.9878 17.1323 41.644C16.8817 41.3003 16.5397 41.1284 16.1064 41.1284C15.6803 41.1284 15.342 41.2985 15.0913 41.6387C14.8407 41.9753 14.7153 42.4801 14.7153 43.1533ZM21.1445 40.1885L21.1821 40.7954C21.5903 40.3192 22.1489 40.0811 22.8579 40.0811C23.6349 40.0811 24.1667 40.3783 24.4531 40.9727C24.8757 40.3783 25.4701 40.0811 26.2363 40.0811C26.8773 40.0811 27.3535 40.2583 27.665 40.6128C27.9801 40.9673 28.1413 41.4901 28.1484 42.1812V46H26.8433V42.2188C26.8433 41.8499 26.7627 41.5796 26.6016 41.4077C26.4404 41.2358 26.1737 41.1499 25.8013 41.1499C25.5041 41.1499 25.2606 41.2305 25.0708 41.3916C24.8846 41.5492 24.7539 41.7568 24.6787 42.0146L24.6841 46H23.3789V42.1758C23.361 41.4919 23.0119 41.1499 22.3315 41.1499C21.8088 41.1499 21.4382 41.363 21.2197 41.7891V46H19.9146V40.1885H21.1445ZM33.7881 46H32.4346V38.1797H33.7881V46ZM36.5435 40.1885L36.5811 40.8599C37.0107 40.3407 37.5747 40.0811 38.2729 40.0811C39.4832 40.0811 40.0991 40.7739 40.1206 42.1597V46H38.8154V42.2349C38.8154 41.866 38.7349 41.5939 38.5737 41.4185C38.4162 41.2394 38.1566 41.1499 37.7949 41.1499C37.2686 41.1499 36.8765 41.388 36.6187 41.8643V46H35.3135V40.1885H36.5435Z" fill="#EA203E"/>
</svg>
