<svg width="41" height="49" viewBox="0 0 41 49"  xmlns="http://www.w3.org/2000/svg">
<g>
	<path d="M16.1,7.9c-3.8,3.8-4.3,9.8-1.4,14.1L6,29.5l1.6,1.9l8.8-7.5c2.1,1.9,4.7,2.9,7.4,2.9c2.9,0,5.7-1.1,7.9-3.3
		c4.3-4.3,4.4-11.4,0.1-15.7C27.5,3.5,20.5,3.5,16.1,7.9z M30.3,22c-3.6,3.6-9.3,3.6-12.8,0.1c-3.5-3.5-3.5-9.3,0.1-12.8
		c1.8-1.8,4.1-2.7,6.5-2.7c2.3,0,4.6,0.9,6.3,2.6C33.9,12.7,33.9,18.5,30.3,22z"/>
	<polygon  points="24.7,11.2 23.3,11.2 23.3,14.9 19.5,14.9 19.5,16.4 23.3,16.4 23.3,20.2 24.7,20.2 24.7,16.4 
		28.5,16.4 28.5,14.9 24.7,14.9 	"/>
	<path d="M11.8,40.8c-0.5-0.5-1.1-0.8-1.9-0.8c-0.5,0-1,0.1-1.4,0.4c-0.4,0.2-0.7,0.6-1,1.1c-0.2,0.5-0.3,1-0.3,1.5v0.1
		c0,0.9,0.2,1.6,0.7,2.2c0.5,0.5,1.2,0.8,2,0.8c0.5,0,1-0.1,1.4-0.4c0.4-0.2,0.7-0.6,0.9-1c0.2-0.5,0.3-1,0.3-1.5l0-0.3
		C12.5,42,12.2,41.3,11.8,40.8z M10.9,44.5c-0.2,0.3-0.6,0.5-1,0.5s-0.8-0.2-1-0.5c-0.2-0.3-0.4-0.8-0.4-1.4c0-0.7,0.1-1.2,0.4-1.5
		c0.3-0.3,0.6-0.5,1-0.5c0.4,0,0.8,0.2,1,0.5c0.3,0.3,0.4,0.8,0.4,1.4C11.3,43.7,11.1,44.2,10.9,44.5z"/>
	<polygon  points="6.3,39 6.3,38.2 0.7,38.2 0.7,39.3 4.7,39.3 0.6,45.1 0.6,46 6.5,46 6.5,44.9 2.3,44.9 	"/>
	<rect x="32.4" y="38.2"  width="1.4" height="7.8"/>
	<path d="M38.3,40.1c-0.7,0-1.3,0.3-1.7,0.8l0-0.7h-1.2V46h1.3v-4.1c0.3-0.5,0.6-0.7,1.2-0.7c0.4,0,0.6,0.1,0.8,0.3
		c0.2,0.2,0.2,0.4,0.2,0.8V46h1.3v-3.8C40.1,40.8,39.5,40.1,38.3,40.1z"/>
	<path  d="M26.2,40.1c-0.8,0-1.4,0.3-1.8,0.9c-0.3-0.6-0.8-0.9-1.6-0.9c-0.7,0-1.3,0.2-1.7,0.7l0-0.6h-1.2V46h1.3v-4.2
		c0.2-0.4,0.6-0.6,1.1-0.6c0.7,0,1,0.3,1,1V46h1.3l0-4c0.1-0.3,0.2-0.5,0.4-0.6c0.2-0.2,0.4-0.2,0.7-0.2c0.4,0,0.6,0.1,0.8,0.3
		c0.2,0.2,0.2,0.4,0.2,0.8V46h1.3v-3.8c0-0.7-0.2-1.2-0.5-1.6C27.4,40.3,26.9,40.1,26.2,40.1z"/>
	<path  d="M18,40.8c-0.5-0.5-1.1-0.8-1.9-0.8c-0.5,0-1,0.1-1.4,0.4c-0.4,0.2-0.7,0.6-1,1.1c-0.2,0.5-0.3,1-0.3,1.5v0.1
		c0,0.9,0.2,1.6,0.7,2.2c0.5,0.5,1.2,0.8,2,0.8c0.5,0,1-0.1,1.4-0.4c0.4-0.2,0.7-0.6,0.9-1c0.2-0.5,0.3-1,0.3-1.5l0-0.3
		C18.8,42,18.5,41.3,18,40.8z M17.1,44.5c-0.2,0.3-0.6,0.5-1,0.5c-0.4,0-0.8-0.2-1-0.5c-0.2-0.3-0.4-0.8-0.4-1.4
		c0-0.7,0.1-1.2,0.4-1.5c0.3-0.3,0.6-0.5,1-0.5c0.4,0,0.8,0.2,1,0.5c0.3,0.3,0.4,0.8,0.4,1.4C17.5,43.7,17.4,44.2,17.1,44.5z"/>
</g>
</svg>
