<svg width="49" height="49" viewBox="0 0 49 49"  xmlns="http://www.w3.org/2000/svg">
<g>
	<path  d="M20.1,7.9c-3.8,3.8-4.3,9.8-1.4,14.1L10,29.5l1.6,1.9l8.8-7.5c2.1,1.9,4.7,2.9,7.4,2.9c2.9,0,5.7-1.1,7.9-3.3
		c4.3-4.3,4.4-11.4,0.1-15.7C31.5,3.5,24.5,3.5,20.1,7.9z M34.3,22c-3.6,3.6-9.3,3.6-12.8,0.1c-3.5-3.5-3.5-9.3,0.1-12.8
		c1.8-1.8,4.1-2.7,6.5-2.7c2.3,0,4.6,0.9,6.3,2.6C37.9,12.7,37.9,18.5,34.3,22z"/>
	<rect x="23.5" y="14.9" width="9" height="1.5"/>
	<path  d="M11.7,40.8c-0.5-0.5-1.1-0.8-1.9-0.8c-0.5,0-1,0.1-1.4,0.4c-0.4,0.2-0.7,0.6-1,1.1c-0.2,0.5-0.3,1-0.3,1.5v0.1
		c0,0.9,0.2,1.6,0.7,2.2c0.5,0.5,1.2,0.8,2,0.8c0.5,0,1-0.1,1.4-0.4c0.4-0.2,0.7-0.6,0.9-1c0.2-0.5,0.3-1,0.3-1.5l0-0.3
		C12.4,42,12.2,41.3,11.7,40.8z M10.8,44.5c-0.2,0.3-0.6,0.5-1,0.5c-0.4,0-0.8-0.2-1-0.5c-0.2-0.3-0.4-0.8-0.4-1.4
		c0-0.7,0.1-1.2,0.4-1.5c0.3-0.3,0.6-0.5,1-0.5c0.4,0,0.8,0.2,1,0.5c0.3,0.3,0.4,0.8,0.4,1.4C11.2,43.7,11.1,44.2,10.8,44.5z"/>
	<polygon  points="6.3,39 6.3,38.2 0.6,38.2 0.6,39.3 4.6,39.3 0.6,45.1 0.6,46 6.4,46 6.4,44.9 2.2,44.9 	"/>
	<path  d="M48.1,45c-0.2,0-0.4,0-0.5-0.1c-0.1-0.1-0.1-0.3-0.1-0.5v-3.2h1v-1h-1v-1.4h-1.3v1.4h-1v1h1v3.3
		c0,1.1,0.5,1.7,1.5,1.7c0.3,0,0.6,0,0.9-0.1v-1C48.4,45,48.3,45,48.1,45z"/>
	<path  d="M43.2,44.4C43,44.8,42.6,45,41.9,45c-0.6,0-0.9-0.4-0.9-1.1v-3.7h-1.3V44c0,0.7,0.2,1.2,0.5,1.6
		c0.3,0.4,0.8,0.6,1.4,0.6c0.7,0,1.2-0.2,1.6-0.7l0,0.6h1.2v-5.8h-1.3V44.4z"/>
	<path  d="M37,38.5c-0.5-0.3-1.1-0.5-1.7-0.5s-1.2,0.2-1.7,0.5c-0.5,0.3-0.9,0.8-1.1,1.3c-0.3,0.6-0.4,1.3-0.4,2v0.4
		c0,0.7,0.1,1.4,0.4,2c0.3,0.6,0.7,1,1.1,1.3c0.5,0.3,1.1,0.5,1.7,0.5c0.6,0,1.2-0.2,1.7-0.5c0.5-0.3,0.9-0.8,1.1-1.3
		c0.3-0.6,0.4-1.3,0.4-2v-0.4c0-0.8-0.1-1.4-0.4-2C37.8,39.3,37.5,38.8,37,38.5z M37.2,42.3c0,0.9-0.2,1.6-0.5,2
		c-0.3,0.5-0.8,0.7-1.4,0.7c-0.6,0-1.1-0.2-1.4-0.7c-0.3-0.5-0.5-1.1-0.5-2v-0.5c0-0.8,0.2-1.5,0.5-1.9c0.3-0.5,0.8-0.7,1.4-0.7
		c0.6,0,1.1,0.2,1.4,0.7c0.3,0.5,0.5,1.1,0.5,2V42.3z"/>
	<path  d="M17.9,40.8c-0.5-0.5-1.1-0.8-1.9-0.8c-0.5,0-1,0.1-1.4,0.4c-0.4,0.2-0.7,0.6-1,1.1c-0.2,0.5-0.3,1-0.3,1.5v0.1
		c0,0.9,0.2,1.6,0.7,2.2c0.5,0.5,1.2,0.8,2,0.8c0.5,0,1-0.1,1.4-0.4c0.4-0.2,0.7-0.6,0.9-1c0.2-0.5,0.3-1,0.3-1.5l0-0.3
		C18.7,42,18.4,41.3,17.9,40.8z M17.1,44.5c-0.2,0.3-0.6,0.5-1,0.5c-0.4,0-0.8-0.2-1-0.5c-0.2-0.3-0.4-0.8-0.4-1.4
		c0-0.7,0.1-1.2,0.4-1.5c0.3-0.3,0.6-0.5,1-0.5c0.4,0,0.8,0.2,1,0.5c0.3,0.3,0.4,0.8,0.4,1.4C17.4,43.7,17.3,44.2,17.1,44.5z"/>
	<path  d="M26.2,40.1c-0.8,0-1.4,0.3-1.8,0.9c-0.3-0.6-0.8-0.9-1.6-0.9c-0.7,0-1.3,0.2-1.7,0.7l0-0.6h-1.2V46h1.3v-4.2
		c0.2-0.4,0.6-0.6,1.1-0.6c0.7,0,1,0.3,1,1V46h1.3l0-4c0.1-0.3,0.2-0.5,0.4-0.6c0.2-0.2,0.4-0.2,0.7-0.2c0.4,0,0.6,0.1,0.8,0.3
		c0.2,0.2,0.2,0.4,0.2,0.8V46h1.3v-3.8c0-0.7-0.2-1.2-0.5-1.6C27.3,40.3,26.8,40.1,26.2,40.1z"/>
</g>
</svg>
