
<svg width="54" height="43" viewBox="0 0 54 43"  xmlns="http://www.w3.org/2000/svg">

<g>
	<path  d="M27.4,19.4c3.3,0,6-2.7,6-6s-2.7-6-6-6c-3.3,0-6,2.7-6,6S24.1,19.4,27.4,19.4z M27.4,9.5c2.2,0,4,1.8,4,4
		c0,2.2-1.8,4-4,4c-2.2,0-4-1.8-4-4C23.5,11.2,25.2,9.5,27.4,9.5z"/>
	<rect x="26.7"  width="1.5" height="5.2"/>
	<rect x="32.5" y="5" transform="matrix(0.7071 -0.7071 0.7071 0.7071 6.1879 26.5058)"  width="5.2" height="1.5"/>
	<rect x="35.6" y="12.7"  width="5.2" height="1.5"/>
	<rect x="34.3" y="18.5" transform="matrix(0.7071 -0.7071 0.7071 0.7071 -4.6359 30.9909)"  width="1.5" height="5.2"/>
	<rect x="26.7" y="21.6"  width="1.5" height="5.2"/>
	<rect x="17.2" y="20.3" transform="matrix(0.7071 -0.7071 0.7071 0.7071 -9.1194 20.1652)"  width="5.2" height="1.5"/>
	<rect x="14" y="12.7"  width="5.2" height="1.5"/>
	<rect x="19" y="3.2" transform="matrix(0.7071 -0.7071 0.7071 0.7071 1.7051 15.6824)"  width="1.5" height="5.2"/>
	<path  d="M9.4,34.8l0-0.6H8.1V40h1.3v-4c0.2-0.5,0.6-0.7,1.2-0.7c0.2,0,0.4,0,0.5,0l0-1.2c-0.1-0.1-0.3-0.1-0.5-0.1
		C10.1,34.1,9.7,34.3,9.4,34.8z"/>
	<path  d="M39.3,34.1c-0.5,0-0.9,0.1-1.4,0.4c-0.4,0.3-0.7,0.6-0.9,1.1c-0.2,0.5-0.3,1-0.3,1.6v0.2
		c0,0.9,0.3,1.6,0.8,2.1c0.5,0.5,1.2,0.8,2,0.8c0.5,0,0.9-0.1,1.3-0.3c0.4-0.2,0.7-0.5,0.9-0.8L41,38.3c-0.4,0.5-0.9,0.7-1.5,0.7
		c-0.4,0-0.8-0.1-1.1-0.4C38.2,38.4,38,38,38,37.5h3.8V37c0-0.9-0.2-1.6-0.6-2.1C40.7,34.3,40.1,34.1,39.3,34.1z M40.5,36.6H38
		c0.1-0.4,0.2-0.8,0.4-1c0.2-0.3,0.5-0.4,0.9-0.4c0.4,0,0.6,0.1,0.8,0.3C40.4,35.7,40.5,36,40.5,36.6L40.5,36.6z"/>
	<path  d="M33.7,34.1c-0.7,0-1.3,0.3-1.7,0.8l0-0.7h-1.2V40h1.3v-4.1c0.3-0.5,0.6-0.7,1.2-0.7c0.4,0,0.6,0.1,0.8,0.3
		c0.2,0.2,0.2,0.4,0.2,0.8V40h1.3v-3.8C35.6,34.8,34.9,34.1,33.7,34.1z"/>
	<path  d="M46.5,37c-0.3-0.2-0.7-0.3-1.2-0.4c-0.5-0.1-0.9-0.2-1-0.3C44.1,36.1,44,36,44,35.8c0-0.2,0.1-0.4,0.3-0.5
		c0.2-0.1,0.4-0.2,0.7-0.2c0.3,0,0.6,0.1,0.7,0.3c0.2,0.2,0.3,0.4,0.3,0.6h1.3c0-0.5-0.2-1-0.6-1.3c-0.4-0.3-1-0.5-1.7-0.5
		c-0.7,0-1.2,0.2-1.6,0.5c-0.4,0.3-0.6,0.8-0.6,1.3c0,0.6,0.3,1.1,1,1.4c0.3,0.1,0.7,0.3,1.1,0.4c0.4,0.1,0.8,0.2,1,0.3
		c0.2,0.1,0.3,0.3,0.3,0.5c0,0.2-0.1,0.4-0.3,0.5c-0.2,0.1-0.4,0.2-0.8,0.2c-0.4,0-0.6-0.1-0.9-0.2c-0.2-0.2-0.3-0.4-0.3-0.7h-1.3
		c0,0.3,0.1,0.7,0.3,1c0.2,0.3,0.5,0.5,0.9,0.7c0.4,0.2,0.8,0.3,1.3,0.3c0.7,0,1.3-0.2,1.7-0.5c0.4-0.3,0.6-0.8,0.6-1.3
		c0-0.3-0.1-0.6-0.2-0.8C47,37.3,46.8,37.2,46.5,37z"/>
	<path  d="M52.8,37.6c-0.1-0.2-0.4-0.4-0.6-0.6c-0.3-0.2-0.7-0.3-1.2-0.4c-0.5-0.1-0.9-0.2-1-0.3
		c-0.2-0.1-0.3-0.3-0.3-0.5c0-0.2,0.1-0.4,0.3-0.5c0.2-0.1,0.4-0.2,0.7-0.2c0.3,0,0.6,0.1,0.7,0.3c0.2,0.2,0.3,0.4,0.3,0.6H53
		c0-0.5-0.2-1-0.6-1.3c-0.4-0.3-1-0.5-1.7-0.5c-0.7,0-1.2,0.2-1.6,0.5c-0.4,0.3-0.6,0.8-0.6,1.3c0,0.6,0.3,1.1,1,1.4
		c0.3,0.1,0.7,0.3,1.1,0.4c0.4,0.1,0.8,0.2,1,0.3c0.2,0.1,0.3,0.3,0.3,0.5c0,0.2-0.1,0.4-0.3,0.5c-0.2,0.1-0.4,0.2-0.8,0.2
		c-0.4,0-0.6-0.1-0.9-0.2c-0.2-0.2-0.3-0.4-0.3-0.7h-1.3c0,0.3,0.1,0.7,0.3,1c0.2,0.3,0.5,0.5,0.9,0.7c0.4,0.2,0.8,0.3,1.3,0.3
		c0.7,0,1.3-0.2,1.7-0.5c0.4-0.3,0.6-0.8,0.6-1.3C53,38,53,37.8,52.8,37.6z"/>
	<path  d="M28.9,38.9c-0.1-0.1-0.1-0.3-0.1-0.5v-3.2h1v-1h-1v-1.4h-1.3v1.4h-1v1h1v3.3c0,1.1,0.5,1.7,1.5,1.7
		c0.3,0,0.6,0,0.9-0.1v-1c-0.2,0-0.3,0.1-0.5,0.1C29.1,39,29,39,28.9,38.9z"/>
	<path  d="M23.9,34.1c-0.7,0-1.2,0.2-1.6,0.7v-3.1H21V40h1.3v-4.2c0.3-0.5,0.6-0.7,1.2-0.7c0.3,0,0.6,0.1,0.8,0.3
		c0.2,0.2,0.3,0.4,0.3,0.8V40h1.3v-3.8C25.8,34.8,25.2,34.1,23.9,34.1z"/>
	<path  d="M5.5,35.9c0.4-0.2,0.7-0.4,0.8-0.7s0.3-0.6,0.3-1c0-0.7-0.2-1.2-0.7-1.6c-0.5-0.4-1.1-0.5-2-0.5H1.3V40h2.9
		c0.9,0,1.6-0.2,2-0.6c0.5-0.4,0.7-1,0.7-1.7c0-0.4-0.1-0.8-0.3-1.1C6.3,36.3,6,36,5.5,35.9z M2.6,33.3H4c0.5,0,0.8,0.1,1,0.3
		c0.2,0.2,0.3,0.5,0.3,0.8c0,0.4-0.1,0.6-0.4,0.8c-0.2,0.2-0.6,0.3-1,0.3H2.6V33.3z M5.1,38.6c-0.2,0.2-0.6,0.3-1,0.3H2.6v-2.4h1.6
		c0.8,0,1.2,0.4,1.2,1.2C5.5,38.1,5.4,38.4,5.1,38.6z"/>
	<rect x="12" y="34.2"  width="1.3" height="5.8"/>
	<path  d="M12.7,32c-0.2,0-0.4,0.1-0.5,0.2C12,32.3,12,32.5,12,32.7c0,0.2,0.1,0.4,0.2,0.5c0.1,0.1,0.3,0.2,0.5,0.2
		c0.2,0,0.4-0.1,0.5-0.2c0.1-0.1,0.2-0.3,0.2-0.5c0-0.2-0.1-0.4-0.2-0.5C13.1,32,12.9,32,12.7,32z"/>
	<path  d="M18.4,34.8c-0.4-0.5-0.9-0.7-1.6-0.7c-0.7,0-1.3,0.3-1.7,0.8c-0.4,0.5-0.6,1.3-0.6,2.2c0,1,0.2,1.7,0.6,2.2
		c0.4,0.5,1,0.8,1.7,0.8c0.6,0,1.1-0.2,1.5-0.6v0.4c0,0.5-0.1,0.8-0.4,1c-0.3,0.2-0.6,0.4-1,0.4c-0.6,0-1.1-0.2-1.5-0.7l-0.6,0.8
		c0.2,0.3,0.5,0.5,0.9,0.7c0.4,0.2,0.8,0.3,1.3,0.3c0.8,0,1.4-0.2,1.9-0.7c0.5-0.4,0.7-1,0.7-1.8v-5.6h-1.2L18.4,34.8z M18.4,38.4
		c-0.3,0.5-0.6,0.7-1.2,0.7c-0.4,0-0.8-0.2-1-0.5c-0.2-0.3-0.4-0.8-0.4-1.4c0-0.7,0.1-1.2,0.4-1.5c0.2-0.3,0.6-0.5,1-0.5
		c0.5,0,0.9,0.2,1.2,0.7V38.4z"/>
</g>
</svg>
