<svg width="43" height="44" viewBox="0 0 43 44"  xmlns="http://www.w3.org/2000/svg">
<g>
	<path  d="M21.4,19.4c3.3,0,6-2.7,6-6s-2.7-6-6-6c-3.3,0-6,2.7-6,6S18.1,19.4,21.4,19.4z M25.4,13.4c0,2.2-1.8,4-4,4V9.5
		C23.6,9.5,25.4,11.2,25.4,13.4z"/>
	<rect x="20.7"  width="1.5" height="5.2"/>
	<rect x="26.5" y="5" transform="matrix(0.7071 -0.7071 0.7071 0.7071 4.4307 22.2632)"  width="5.2" height="1.5"/>
	<rect x="29.6" y="12.7"  width="5.2" height="1.5"/>
	<rect x="28.3" y="18.5" transform="matrix(0.7071 -0.7071 0.7071 0.7071 -6.3932 26.7483)" width="1.5" height="5.2"/>
	<rect x="20.7" y="21.6"  width="1.5" height="5.2"/>
	
		<rect x="11.2" y="20.3" transform="matrix(0.7071 -0.7071 0.7071 0.7071 -10.8766 15.9227)"  width="5.2" height="1.5"/>
	<rect x="8" y="12.7"  width="5.2" height="1.5"/>
	
		<rect x="13" y="3.2" transform="matrix(0.7071 -0.7071 0.7071 0.7071 -5.222689e-02 11.4397)"  width="1.5" height="5.2"/>
	<path d="M12.6,35.8c-0.5-0.5-1.1-0.8-1.9-0.8c-0.5,0-1,0.1-1.4,0.4c-0.4,0.2-0.7,0.6-1,1.1C8.1,37,8,37.5,8,38v0.1
		c0,0.9,0.2,1.6,0.7,2.2c0.5,0.5,1.2,0.8,2,0.8c0.5,0,1-0.1,1.4-0.4c0.4-0.2,0.7-0.6,0.9-1c0.2-0.5,0.3-1,0.3-1.5l0-0.3
		C13.4,37,13.1,36.3,12.6,35.8z M11.7,39.5c-0.2,0.3-0.6,0.5-1,0.5c-0.4,0-0.8-0.2-1-0.5c-0.2-0.3-0.4-0.8-0.4-1.4
		c0-0.7,0.1-1.2,0.4-1.5c0.3-0.3,0.6-0.5,1-0.5c0.4,0,0.8,0.2,1,0.5c0.3,0.3,0.4,0.8,0.4,1.4C12.1,38.7,12,39.2,11.7,39.5z"/>
	<path  d="M17.4,35.1c-0.7,0-1.3,0.3-1.7,0.8l0-0.7h-1.2V41h1.3v-4.1c0.3-0.5,0.6-0.7,1.2-0.7c0.4,0,0.6,0.1,0.8,0.3
		c0.2,0.2,0.2,0.4,0.2,0.8V41h1.3v-3.8C19.3,35.8,18.6,35.1,17.4,35.1z"/>
	<path  d="M22.4,39.9c-0.1-0.1-0.1-0.3-0.1-0.5v-3.2h1v-1h-1v-1.4H21v1.4h-1v1h1v3.3c0,1.1,0.5,1.7,1.5,1.7
		c0.3,0,0.6,0,0.9-0.1v-1C23.2,40,23,40,22.9,40C22.6,40,22.5,40,22.4,39.9z"/>
	<path  d="M25.6,35.8l0-0.6h-1.2V41h1.3v-4c0.2-0.5,0.6-0.7,1.2-0.7c0.2,0,0.4,0,0.5,0l0-1.2c-0.1-0.1-0.3-0.1-0.5-0.1
		C26.3,35.1,25.9,35.3,25.6,35.8z"/>
	<path  d="M32.6,37c0-0.6-0.2-1.1-0.6-1.4c-0.4-0.3-0.9-0.5-1.6-0.5c-0.4,0-0.9,0.1-1.2,0.2c-0.4,0.2-0.6,0.4-0.9,0.7
		c-0.2,0.3-0.3,0.6-0.3,0.9h1.3c0-0.2,0.1-0.4,0.3-0.6c0.2-0.2,0.4-0.2,0.7-0.2c0.3,0,0.6,0.1,0.8,0.3c0.2,0.2,0.3,0.4,0.3,0.7v0.4
		h-0.8c-0.9,0-1.5,0.2-2,0.5c-0.5,0.3-0.7,0.8-0.7,1.4c0,0.5,0.2,0.9,0.6,1.2c0.4,0.3,0.8,0.5,1.4,0.5c0.6,0,1.1-0.2,1.5-0.6
		c0,0.3,0.1,0.4,0.2,0.5h1.3v-0.1c-0.1-0.3-0.2-0.7-0.2-1.3V37z M31.3,39.4c-0.1,0.2-0.3,0.4-0.5,0.5c-0.2,0.1-0.5,0.2-0.7,0.2
		c-0.3,0-0.5-0.1-0.7-0.2c-0.2-0.2-0.2-0.4-0.2-0.6c0-0.3,0.1-0.5,0.4-0.7c0.2-0.2,0.6-0.3,1.1-0.3h0.7V39.4z"/>
	<path  d="M2.8,34.8c0.3-0.4,0.8-0.6,1.4-0.6c0.5,0,0.9,0.1,1.2,0.4c0.3,0.2,0.4,0.7,0.5,1.2h1.4c-0.1-0.9-0.4-1.5-0.9-2
		c-0.5-0.5-1.2-0.7-2.1-0.7c-0.6,0-1.2,0.2-1.7,0.5c-0.5,0.3-0.9,0.7-1.1,1.3S0.9,36,0.9,36.8v0.7c0,0.7,0.1,1.4,0.4,1.9
		s0.6,1,1.1,1.3c0.5,0.3,1,0.4,1.6,0.4c0.9,0,1.6-0.2,2.1-0.7c0.5-0.5,0.8-1.1,0.9-2H5.8c-0.1,0.6-0.2,1-0.5,1.2
		C5,39.9,4.6,40,4.1,40c-0.6,0-1-0.2-1.3-0.7c-0.3-0.4-0.5-1.1-0.5-1.9v-0.7C2.3,35.9,2.5,35.3,2.8,34.8z"/>
	<path  d="M41.9,40c-0.2,0-0.4,0-0.5-0.1c-0.1-0.1-0.1-0.3-0.1-0.5v-3.2h1v-1h-1v-1.4H40v1.4h-1v1h1v3.3
		c0,1.1,0.5,1.7,1.5,1.7c0.3,0,0.6,0,0.9-0.1v-1C42.2,40,42,40,41.9,40z"/>
	<path  d="M37.6,38c-0.3-0.2-0.7-0.3-1.2-0.4c-0.5-0.1-0.9-0.2-1-0.3c-0.2-0.1-0.3-0.3-0.3-0.5c0-0.2,0.1-0.4,0.3-0.5
		c0.2-0.1,0.4-0.2,0.7-0.2c0.3,0,0.6,0.1,0.7,0.3c0.2,0.2,0.3,0.4,0.3,0.6h1.3c0-0.5-0.2-1-0.6-1.3c-0.4-0.3-1-0.5-1.7-0.5
		c-0.7,0-1.2,0.2-1.6,0.5c-0.4,0.3-0.6,0.8-0.6,1.3c0,0.6,0.3,1.1,1,1.4c0.3,0.1,0.7,0.3,1.1,0.4c0.4,0.1,0.8,0.2,1,0.3
		c0.2,0.1,0.3,0.3,0.3,0.5c0,0.2-0.1,0.4-0.3,0.5c-0.2,0.1-0.4,0.2-0.8,0.2c-0.4,0-0.6-0.1-0.9-0.2c-0.2-0.2-0.3-0.4-0.3-0.7h-1.3
		c0,0.3,0.1,0.7,0.3,1c0.2,0.3,0.5,0.5,0.9,0.7c0.4,0.2,0.8,0.3,1.3,0.3c0.7,0,1.3-0.2,1.7-0.5c0.4-0.3,0.6-0.8,0.6-1.3
		c0-0.3-0.1-0.6-0.2-0.8C38.1,38.3,37.9,38.2,37.6,38z"/>
</g>
</svg>
