<svg width="40" height="42" viewBox="0 0 40 42"  xmlns="http://www.w3.org/2000/svg">
<g>
	<path  d="M13.1,23.2l11.4-11.4l2.4-2.4C27.6,8.7,28,7.7,28,6.6s-0.4-2.1-1.2-2.8l-1-1c-0.8-0.8-1.8-1.2-2.8-1.2
		s-2.1,0.4-2.8,1.2l-0.5,0.5l-2.8,2.8L6.4,16.6l-0.3-0.1L2.3,27.4l10.9-3.8L13.1,23.2z M20.4,9.7l-9,9l-0.5-0.5l9-9L20.4,9.7z
		 M22.1,11.4l-9,9l-0.2-0.2l9-9L22.1,11.4z M21.6,4.2c0.8-0.8,2.1-0.8,2.8,0l1,1C25.8,5.6,26,6.1,26,6.6s-0.2,1-0.6,1.4l-0.5,0.5
		l-3.8-3.8L21.6,4.2z M19.7,6.1l3.8,3.8l0,0l0,0L19.7,6.1L19.7,6.1z M18.3,7.6l0.2,0.2l-9,9l-0.2-0.2L18.3,7.6z M7.9,18l3.7,3.7
		l-5.8,2L7.9,18z"/>
	<polygon  points="24.6,27.2 24.6,23.4 28.4,23.4 28.4,21.9 24.6,21.9 24.6,18.2 23.1,18.2 23.1,21.9 19.4,21.9 
		19.4,23.4 23.1,23.4 23.1,27.2 	"/>
	<polygon  points="28,33.2 27.1,37.2 25.9,33.2 24.9,33.2 23.7,37.2 22.8,33.2 21.5,33.2 23.1,39 24.2,39 25.4,35 
		26.6,39 27.7,39 29.3,33.2 	"/>
	<path  d="M9.4,31.6c-0.5-0.3-1.1-0.5-1.8-0.5H5.3V39h2.3c0.7,0,1.3-0.2,1.9-0.5c0.5-0.3,1-0.7,1.3-1.3
		c0.3-0.6,0.4-1.2,0.4-2v-0.4c0-0.7-0.1-1.4-0.4-1.9C10.4,32.4,10,31.9,9.4,31.6z M9.8,35.3c0,0.8-0.2,1.5-0.6,1.9
		c-0.4,0.4-0.9,0.7-1.6,0.7H6.6v-5.6h1c0.7,0,1.2,0.2,1.6,0.7c0.4,0.4,0.6,1.1,0.6,1.9V35.3z"/>
	<path  d="M20.6,35c0-0.6-0.2-1.1-0.6-1.4c-0.4-0.3-0.9-0.5-1.6-0.5c-0.4,0-0.9,0.1-1.2,0.2c-0.4,0.2-0.6,0.4-0.9,0.7
		c-0.2,0.3-0.3,0.6-0.3,0.9h1.3c0-0.2,0.1-0.4,0.3-0.6c0.2-0.2,0.4-0.2,0.7-0.2c0.3,0,0.6,0.1,0.8,0.3c0.2,0.2,0.3,0.4,0.3,0.7v0.4
		h-0.8c-0.9,0-1.5,0.2-2,0.5c-0.5,0.3-0.7,0.8-0.7,1.4c0,0.5,0.2,0.9,0.6,1.2c0.4,0.3,0.8,0.5,1.4,0.5c0.6,0,1.1-0.2,1.5-0.6
		c0,0.3,0.1,0.4,0.2,0.5h1.3v-0.1c-0.1-0.3-0.2-0.7-0.2-1.3V35z M19.3,37.4c-0.1,0.2-0.3,0.4-0.5,0.5c-0.2,0.1-0.5,0.2-0.7,0.2
		c-0.3,0-0.5-0.1-0.7-0.2c-0.2-0.2-0.2-0.4-0.2-0.6c0-0.3,0.1-0.5,0.4-0.7c0.2-0.2,0.6-0.3,1.1-0.3h0.7V37.4z"/>
	<path  d="M13.6,33.8l0-0.6h-1.2V39h1.3v-4c0.2-0.5,0.6-0.7,1.2-0.7c0.2,0,0.4,0,0.5,0l0-1.2c-0.1-0.1-0.3-0.1-0.5-0.1
		C14.4,33.1,13.9,33.3,13.6,33.8z"/>
</g>
</svg>
