<svg width="32" height="45" viewBox="0 0 32 45" xmlns="http://www.w3.org/2000/svg">

<path  d="M19.3,5.4H3.8l4.1-4L6.5,0L0,6.4l6.5,6.4l1.4-1.4l-4.1-4h15.5c5.1,0,9.2,4.1,9.2,9.2c0,5.1-4.1,9.2-9.2,9.2H1.4
	v2h17.9c6.2,0,11.2-5,11.2-11.2C30.5,10.5,25.5,5.4,19.3,5.4z"/>
<path  d="M8.8,33.4v5.2c0,0.8-0.3,1.5-0.8,2c-0.5,0.5-1.2,0.7-2.1,0.7c-0.9,0-1.6-0.2-2.1-0.7c-0.5-0.5-0.8-1.1-0.8-2
	v-5.2h1.4v5.2c0,0.5,0.1,0.9,0.4,1.2c0.3,0.3,0.7,0.4,1.2,0.4c1,0,1.6-0.6,1.6-1.7v-5.2H8.8z M11.3,35.4l0,0.7
	c0.4-0.5,1-0.8,1.7-0.8c1.2,0,1.8,0.7,1.8,2.1v3.8h-1.3v-3.8c0-0.4-0.1-0.6-0.2-0.8c-0.2-0.2-0.4-0.3-0.8-0.3
	c-0.5,0-0.9,0.2-1.2,0.7v4.1h-1.3v-5.8H11.3z M16,38.3c0-0.9,0.2-1.6,0.6-2.2c0.4-0.5,1-0.8,1.7-0.8c0.6,0,1.1,0.2,1.5,0.6v-3h1.3
	v8.3h-1.2l-0.1-0.6c-0.4,0.5-0.9,0.7-1.6,0.7c-0.7,0-1.2-0.3-1.7-0.8C16.2,40,16,39.2,16,38.3z M17.3,38.4c0,0.6,0.1,1.1,0.3,1.4
	c0.2,0.3,0.6,0.5,1,0.5c0.5,0,0.9-0.2,1.2-0.7v-2.5c-0.2-0.5-0.6-0.7-1.2-0.7c-0.4,0-0.7,0.2-1,0.5C17.4,37.2,17.3,37.7,17.3,38.4z
	 M22.2,38.3c0-0.6,0.1-1.1,0.3-1.5c0.2-0.5,0.5-0.8,1-1.1c0.4-0.2,0.9-0.4,1.4-0.4c0.8,0,1.4,0.3,1.9,0.8c0.5,0.5,0.8,1.2,0.8,2
	l0,0.3c0,0.6-0.1,1.1-0.3,1.5c-0.2,0.5-0.5,0.8-0.9,1c-0.4,0.2-0.9,0.4-1.4,0.4c-0.8,0-1.5-0.3-2-0.8C22.4,40,22.2,39.2,22.2,38.3
	L22.2,38.3z M23.5,38.4c0,0.6,0.1,1.1,0.4,1.4c0.2,0.3,0.6,0.5,1,0.5c0.4,0,0.8-0.2,1-0.5c0.2-0.3,0.4-0.8,0.4-1.5
	c0-0.6-0.1-1.1-0.4-1.4c-0.3-0.3-0.6-0.5-1-0.5c-0.4,0-0.8,0.2-1,0.5C23.6,37.2,23.5,37.7,23.5,38.4z"/>
</svg>
